<?xml version="1.0" encoding="utf-8"?>
<!-- Generator: Adobe Illustrator 16.0.4, SVG Export Plug-In . SVG Version: 6.00 Build 0)  -->
<!DOCTYPE svg PUBLIC "-//W3C//DTD SVG 1.1//EN" "http://www.w3.org/Graphics/SVG/1.1/DTD/svg11.dtd">
<svg version="1.1" id="Layer_1" xmlns="http://www.w3.org/2000/svg" xmlns:xlink="http://www.w3.org/1999/xlink" x="0px" y="0px"
	 width="206px" height="72px" viewBox="0 0 206 72" enable-background="new 0 0 206 72" xml:space="preserve">
<path opacity="0.6" fill="#FFFFFF" d="M192.594,19.602c-1.691-1.817-4.104-2.985-6.768-2.983c-2.66-0.002-5.074,1.165-6.768,2.983
	c-1.699,1.817-2.729,4.303-2.729,7.016v5.44h-14.523h-1.633c-0.678,0-1.227,0.549-1.227,1.227v14.38c0,0.68,0.549,1.229,1.227,1.229
	h22.258c0.68,0,1.229-0.549,1.229-1.229v-14.38c0-0.677-0.549-1.227-1.229-1.227h-1.594v-5.44c0-1.565,0.592-2.949,1.514-3.935
	c0.93-0.986,2.137-1.552,3.477-1.555c1.338,0.003,2.547,0.568,3.473,1.555c0.922,0.985,1.516,2.369,1.516,3.935v4.343h4.506v-4.343
	C195.322,23.906,194.295,21.419,192.594,19.602z"/>
<g>
	<path opacity="0.3" enable-background="new    " d="M121.248,49.292c8.376,0,15.166-6.791,15.166-15.167
		c0-8.377-6.79-15.167-15.166-15.167H83.915c-8.377,0-15.167,6.79-15.167,15.167c0,8.376,6.79,15.167,15.167,15.167H121.248z"/>
	<circle opacity="0.15" fill="#FFFFFF" enable-background="new    " cx="121.248" cy="34.125" r="11.167"/>
</g>
<path opacity="0.15" fill="#FFFFFF" d="M40.488,32.058h-1.632v-5.44c0-2.711-1.029-5.198-2.729-7.016
	c-1.692-1.817-4.104-2.985-6.767-2.983c-2.661-0.002-5.076,1.165-6.769,2.983c-1.7,1.817-2.729,4.303-2.729,7.016v5.44H18.23
	c-0.678,0-1.227,0.549-1.227,1.227v14.38c0,0.68,0.549,1.229,1.227,1.229h22.258c0.679,0,1.228-0.549,1.228-1.229v-14.38
	C41.716,32.607,41.168,32.058,40.488,32.058z M24.371,26.617c0-1.565,0.592-2.949,1.514-3.935c0.929-0.986,2.136-1.552,3.476-1.555
	c1.338,0.003,2.547,0.568,3.472,1.555c0.923,0.985,1.516,2.369,1.516,3.935v5.44h-9.979V26.617z"/>
</svg>
