<?xml version="1.0" encoding="utf-8"?>
<!-- Generator: Adobe Illustrator 16.0.4, SVG Export Plug-In . SVG Version: 6.00 Build 0)  -->
<!DOCTYPE svg PUBLIC "-//W3C//DTD SVG 1.1//EN" "http://www.w3.org/Graphics/SVG/1.1/DTD/svg11.dtd">
<svg version="1.1" id="Layer_1" xmlns="http://www.w3.org/2000/svg" xmlns:xlink="http://www.w3.org/1999/xlink" x="0px" y="0px"
	 width="206px" height="72px" viewBox="0 0 206 72" enable-background="new 0 0 206 72" xml:space="preserve">
<g>
	<path opacity="0.3" enable-background="new    " d="M121.248,49.292c8.376,0,15.166-6.791,15.166-15.167
		c0-8.377-6.79-15.167-15.166-15.167H83.915c-8.377,0-15.167,6.79-15.167,15.167c0,8.376,6.79,15.167,15.167,15.167H121.248z"/>
	<circle opacity="0.15" fill="#FFFFFF" enable-background="new    " cx="121.248" cy="34.125" r="11.167"/>
</g>
<path opacity="0.15" fill="#FFFFFF" enable-background="new    " d="M45.809,18.848H24.105v6.723h21.703V18.848z M45.809,29.446
	H24.105v6.724h21.703V29.446z M24.105,40.045v6.723h21.703v-6.723H24.105L24.105,40.045z M16.43,18.746
	c-1.943,0-3.52,1.576-3.52,3.521s1.576,3.521,3.52,3.521c1.944,0,3.52-1.576,3.52-3.521S18.374,18.746,16.43,18.746z M16.43,28.868
	c-1.943,0-3.52,1.576-3.52,3.521c0,1.943,1.576,3.52,3.52,3.52c1.944,0,3.52-1.576,3.52-3.52S18.374,28.868,16.43,28.868z
	 M16.43,39.704c-1.943,0-3.52,1.573-3.52,3.518s1.576,3.52,3.52,3.52c1.944,0,3.52-1.575,3.52-3.52S18.374,39.704,16.43,39.704z"/>
<path opacity="0.6" fill="#FFFFFF" enable-background="new    " d="M162.478,29.612h11.348V18.266h-11.348V29.612z M180.444,18.266
	v11.347h11.348V18.266H180.444z M162.478,47.248h11.348V35.9h-11.348V47.248z M180.444,47.248h11.348V35.9h-11.348V47.248z"/>
</svg>
