<?xml version="1.0" encoding="utf-8"?>
<!-- Generator: Adobe Illustrator 16.0.4, SVG Export Plug-In . SVG Version: 6.00 Build 0)  -->
<!DOCTYPE svg PUBLIC "-//W3C//DTD SVG 1.1//EN" "http://www.w3.org/Graphics/SVG/1.1/DTD/svg11.dtd">
<svg version="1.1" id="Layer_1" xmlns="http://www.w3.org/2000/svg" xmlns:xlink="http://www.w3.org/1999/xlink" x="0px" y="0px"
	 width="72px" height="72px" viewBox="0 0 72 72" enable-background="new 0 0 72 72" xml:space="preserve">
<path fill="#FFFFFF" d="M59.061,17.334h-30.28v9.38h30.28V17.334z M59.061,32.121h-30.28v9.38h30.28V32.121z M28.781,46.908v9.379
	h30.28v-9.379H28.781z M18.072,17.193c-2.711,0-4.91,2.198-4.91,4.911c0,2.713,2.199,4.912,4.91,4.912
	c2.713,0,4.911-2.199,4.911-4.912C22.983,19.391,20.785,17.193,18.072,17.193z M18.072,31.315c-2.711,0-4.91,2.198-4.91,4.911
	c0,2.712,2.199,4.91,4.91,4.91c2.713,0,4.911-2.198,4.911-4.91C22.983,33.514,20.785,31.315,18.072,31.315z M18.072,46.431
	c-2.711,0-4.91,2.196-4.91,4.909c0,2.712,2.199,4.91,4.91,4.91c2.713,0,4.911-2.198,4.911-4.91
	C22.983,48.627,20.785,46.431,18.072,46.431z"/>
</svg>
