<?xml version="1.0" encoding="utf-8"?>
<!-- Generator: Adobe Illustrator 16.0.4, SVG Export Plug-In . SVG Version: 6.00 Build 0)  -->
<!DOCTYPE svg PUBLIC "-//W3C//DTD SVG 1.1//EN" "http://www.w3.org/Graphics/SVG/1.1/DTD/svg11.dtd">
<svg version="1.1" id="Layer_1" xmlns="http://www.w3.org/2000/svg" xmlns:xlink="http://www.w3.org/1999/xlink" x="0px" y="0px"
	 width="206px" height="72px" viewBox="0 0 206 72" enable-background="new 0 0 206 72" xml:space="preserve">
<path opacity="0.3" enable-background="new    " d="M83.914,49.292c-8.376,0-15.166-6.791-15.166-15.167
	c0-8.377,6.79-15.167,15.166-15.167h37.333c8.377,0,15.167,6.79,15.167,15.167c0,8.376-6.79,15.167-15.167,15.167H83.914z"/>
<circle opacity="0.15" fill="#FFFFFF" enable-background="new    " cx="83.915" cy="34.125" r="11.167"/>
<path opacity="0.6" fill="#FFFFFF" enable-background="new    " d="M45.809,18.848H24.105v6.723h21.703L45.809,18.848L45.809,18.848
	z M45.809,29.446H24.105v6.724h21.703L45.809,29.446L45.809,29.446z M24.105,40.045v6.723h21.703v-6.723H24.105L24.105,40.045z
	 M16.43,18.746c-1.943,0-3.52,1.576-3.52,3.521c0,1.945,1.576,3.521,3.52,3.521c1.944,0,3.52-1.576,3.52-3.521
	C19.95,20.322,18.374,18.746,16.43,18.746z M16.43,28.868c-1.943,0-3.52,1.576-3.52,3.521c0,1.943,1.576,3.52,3.52,3.52
	c1.944,0,3.52-1.576,3.52-3.52C19.95,30.445,18.374,28.868,16.43,28.868z M16.43,39.704c-1.943,0-3.52,1.573-3.52,3.519
	c0,1.944,1.576,3.52,3.52,3.52c1.944,0,3.52-1.575,3.52-3.52C19.95,41.277,18.374,39.704,16.43,39.704z"/>
<path opacity="0.15" fill="#FFFFFF" enable-background="new    " d="M162.479,29.612h11.348V18.266h-11.348V29.612z M180.443,18.266
	v11.347h11.349V18.266H180.443z M162.479,47.248h11.348V35.9h-11.348V47.248z M180.443,47.248h11.349V35.9h-11.349V47.248z"/>
</svg>
