<?xml version="1.0" encoding="utf-8"?>
<!-- Generator: Adobe Illustrator 16.0.4, SVG Export Plug-In . SVG Version: 6.00 Build 0)  -->
<!DOCTYPE svg PUBLIC "-//W3C//DTD SVG 1.1//EN" "http://www.w3.org/Graphics/SVG/1.1/DTD/svg11.dtd">
<svg version="1.1" id="Layer_1" xmlns="http://www.w3.org/2000/svg" xmlns:xlink="http://www.w3.org/1999/xlink" x="0px" y="0px"
	 width="72px" height="72px" viewBox="0 0 72 72" enable-background="new 0 0 72 72" xml:space="preserve">
<g>
	<g>
		<polygon fill="#7E8084" points="10.112,22.504 16.93,29.32 10.112,36.137 		"/>
	</g>
	<path fill="#7E8084" d="M20.217,29.532L10.15,39.595v22.194h53.039V29.532H20.217z M52.055,51.244H22.591v-3.409h29.464V51.244z
		 M52.055,43.414h-29.46v-3.407h29.46V43.414z M62.414,19.875L60.352,8.653l0,0L9.01,18.072l9.803,9.803L62.414,19.875z
		 M56.769,11.39l2.937,5.065l0.327,1.779l-6.266,1.149l-3.898-6.728L56.769,11.39z M42.662,13.977l3.899,6.728l-6.904,1.269
		l-3.9-6.73L42.662,13.977z M28.556,16.565l3.899,6.73l-6.904,1.265l-3.9-6.728L28.556,16.565z"/>
</g>
</svg>
