<?xml version="1.0" encoding="utf-8"?>
<!-- Generator: Adobe Illustrator 16.0.4, SVG Export Plug-In . SVG Version: 6.00 Build 0)  -->
<!DOCTYPE svg PUBLIC "-//W3C//DTD SVG 1.1//EN" "http://www.w3.org/Graphics/SVG/1.1/DTD/svg11.dtd">
<svg version="1.1" id="Layer_1" xmlns="http://www.w3.org/2000/svg" xmlns:xlink="http://www.w3.org/1999/xlink" x="0px" y="0px"
	 width="72px" height="72px" viewBox="0 0 72 72" enable-background="new 0 0 72 72" xml:space="preserve">
<path fill-rule="evenodd" clip-rule="evenodd" fill="#84B53C" d="M63.153,8.164l-36.685,3.642v33.893
	c-7.314-3.326-15.884,1.131-17.306,7.738c-0.463,2.151,0.498,4.477,1.386,5.543c5.007,5.977,15.92,3.189,20.938-3.235
	c2.225-2.849,2.04-5.341,2.04-11.447V18.668l22.568-1.833v25.223c-7.312-3.327-15.884,1.131-17.305,7.739
	c-0.465,2.15,0.494,4.476,1.383,5.541c5.007,5.977,15.922,3.189,20.939-3.234c2.227-2.85,2.041-5.34,2.041-11.447V8.164z"/>
</svg>
