<?xml version="1.0" encoding="utf-8"?>
<!-- Generator: Adobe Illustrator 16.0.4, SVG Export Plug-In . SVG Version: 6.00 Build 0)  -->
<!DOCTYPE svg PUBLIC "-//W3C//DTD SVG 1.1//EN" "http://www.w3.org/Graphics/SVG/1.1/DTD/svg11.dtd">
<svg version="1.1" id="Layer_1" xmlns="http://www.w3.org/2000/svg" xmlns:xlink="http://www.w3.org/1999/xlink" x="0px" y="0px"
	 width="72px" height="72px" viewBox="0 0 72 72" enable-background="new 0 0 72 72" xml:space="preserve">
<g>
	<path fill="#7E8084" d="M24.651,57.152c-0.704-0.707-1.737-1.062-3.1-1.062c-1.359,0-2.395,0.356-3.108,1.071
		c-0.713,0.714-1.069,1.749-1.069,3.104c0,1.369,0.358,2.412,1.075,3.129c0.717,0.715,1.747,1.073,3.091,1.073
		c1.363,0,2.398-0.356,3.105-1.067c0.707-0.713,1.061-1.754,1.061-3.123C25.706,58.904,25.355,57.861,24.651,57.152z M22.845,62.064
		c-0.283,0.381-0.718,0.572-1.304,0.572c-1.153,0-1.729-0.787-1.729-2.359c0-1.588,0.58-2.383,1.741-2.383
		c0.57,0,0.999,0.193,1.286,0.582c0.287,0.388,0.431,0.988,0.431,1.801C23.27,61.085,23.128,61.682,22.845,62.064z"/>
	<path fill="#7E8084" d="M30.552,64.357h-2.314v-6.34h-2.092v-1.797h6.492v1.797h-2.086V64.357z"/>
	<path fill="#7E8084" d="M41.204,64.357h-2.325V61.04h-2.69v3.317h-2.326v-8.137h2.326v3.016h2.69v-3.016h2.325V64.357z"/>
	<path fill="#7E8084" d="M47.662,64.357h-5.086v-8.137h5.086v1.764h-2.771v1.279h2.566v1.766h-2.566v1.537h2.771V64.357z"/>
	<path fill="#7E8084" d="M53.768,60.812c0.969-0.517,1.453-1.246,1.453-2.188c0-1.603-1.164-2.403-3.492-2.403h-2.807v8.137h2.314
		v-2.961h0.587l1.815,2.961h2.625L53.768,60.812z M51.67,59.743h-0.434v-1.86h0.457c0.793,0,1.189,0.28,1.189,0.842
		C52.883,59.402,52.479,59.743,51.67,59.743z"/>
</g>
<g>
	<path fill="#7E8084" d="M36.385,22.621c-4.788,0-8.683,3.722-8.683,8.296c0,4.575,3.895,8.296,8.683,8.296
		c4.786,0,8.682-3.721,8.682-8.296C45.066,26.342,41.171,22.621,36.385,22.621z M36.385,34.454c-1.954,0-3.538-1.583-3.538-3.537
		c0-1.954,1.584-3.536,3.538-3.536c1.953,0,3.536,1.583,3.536,3.536C39.921,32.871,38.338,34.454,36.385,34.454z"/>
	<path fill="#7E8084" d="M36.385,9.5c-11.829,0-21.417,9.588-21.417,21.417c0,11.828,9.589,21.417,21.417,21.417
		c11.828,0,21.416-9.59,21.416-21.417C57.801,19.088,48.213,9.5,36.385,9.5z M36.385,40.756c-5.64,0-10.227-4.413-10.227-9.839
		c0-5.425,4.587-9.839,10.227-9.839c5.639,0,10.225,4.415,10.225,9.839C46.609,36.343,42.023,40.756,36.385,40.756z"/>
</g>
</svg>
