<?xml version="1.0" encoding="utf-8"?>
<!-- Generator: Adobe Illustrator 16.0.4, SVG Export Plug-In . SVG Version: 6.00 Build 0)  -->
<!DOCTYPE svg PUBLIC "-//W3C//DTD SVG 1.1//EN" "http://www.w3.org/Graphics/SVG/1.1/DTD/svg11.dtd">
<svg version="1.1" id="Layer_1" xmlns="http://www.w3.org/2000/svg" xmlns:xlink="http://www.w3.org/1999/xlink" x="0px" y="0px"
	 width="72px" height="72px" viewBox="0 0 72 72" enable-background="new 0 0 72 72" xml:space="preserve">
<path d="M51.669,12.023H20.333c-4.22,0-7.652,3.433-7.652,7.651v31.336c0,4.219,3.433,7.651,7.652,7.651H36V41.173h-5.876v-7.299H36
	v-3.673c0-5.265,3.953-9.548,8.813-9.548h5.876v7.275h-5.876c-0.692,0-1.469,0.942-1.469,2.204v3.741h7.345v7.299h-7.345v17.489
	h8.324c4.219,0,7.65-3.433,7.65-7.651V19.675C59.319,15.456,55.888,12.023,51.669,12.023z"/>
</svg>
