<?xml version="1.0" encoding="utf-8"?>
<!-- Generator: Adobe Illustrator 16.0.4, SVG Export Plug-In . SVG Version: 6.00 Build 0)  -->
<!DOCTYPE svg PUBLIC "-//W3C//DTD SVG 1.1//EN" "http://www.w3.org/Graphics/SVG/1.1/DTD/svg11.dtd">
<svg version="1.1" id="Layer_1" xmlns="http://www.w3.org/2000/svg" xmlns:xlink="http://www.w3.org/1999/xlink" x="0px" y="0px"
	 width="72px" height="72px" viewBox="0 0 72 72" enable-background="new 0 0 72 72" xml:space="preserve">
<g>
	<path d="M45.169,33.702c9.433-0.187,17.196,5.625,17.341,12.982c0.052,2.556-0.827,4.964-2.39,7.024h0.002
		c-2.688,3.451,0.243,9.384,0.243,9.384l-8.655-3.729c-1.864,0.588-3.892,0.933-6.015,0.976
		c-9.433,0.185-17.198-5.626-17.343-12.982S35.737,33.888,45.169,33.702z"/>
	<path d="M45.94,31.415c0.971-0.019,1.927,0.016,2.866,0.093c1.072-1.891,1.687-3.981,1.729-6.187
		c0.174-8.839-8.873-16.185-20.208-16.409C18.995,8.689,9.665,15.674,9.491,24.514c-0.061,3.07,0.994,5.964,2.872,8.44H12.36
		c3.229,4.146-0.292,11.275-0.292,11.275l10.4-4.479c1.396,0.44,2.875,0.752,4.405,0.947C30.489,35.319,37.64,31.579,45.94,31.415z"
		/>
</g>
</svg>
