<?xml version="1.0" encoding="utf-8"?>
<!-- Generator: Adobe Illustrator 16.0.4, SVG Export Plug-In . SVG Version: 6.00 Build 0)  -->
<!DOCTYPE svg PUBLIC "-//W3C//DTD SVG 1.1//EN" "http://www.w3.org/Graphics/SVG/1.1/DTD/svg11.dtd">
<svg version="1.1" id="Layer_1" xmlns="http://www.w3.org/2000/svg" xmlns:xlink="http://www.w3.org/1999/xlink" x="0px" y="0px"
	 width="72px" height="72px" viewBox="0 0 72 72" enable-background="new 0 0 72 72" xml:space="preserve">
<path fill="#FFFFFF" d="M43.603,20.539c0.964,0,1.748-0.784,1.748-1.748v-5.467c0-0.965-0.784-1.748-1.748-1.748
	c-0.965,0-1.748,0.783-1.748,1.748v5.467C41.854,19.755,42.638,20.539,43.603,20.539z M52.272,23.035l3.865-3.869
	c0.683-0.682,0.683-1.788,0-2.47c-0.682-0.683-1.789-0.683-2.472,0l-3.865,3.867c-0.683,0.683-0.683,1.79,0,2.472
	C50.483,23.718,51.591,23.716,52.272,23.035z M34.98,23.309c0.683,0.681,1.786,0.681,2.469,0c0.683-0.683,0.683-1.79,0-2.471
	l-3.865-3.869c-0.683-0.682-1.79-0.682-2.472,0c-0.683,0.683-0.683,1.79,0,2.473L34.98,23.309z M52.103,35.491
	c-0.683-0.683-1.786-0.683-2.469,0s-0.683,1.788,0,2.471l3.865,3.866c0.683,0.683,1.789,0.683,2.472,0
	c0.683-0.682,0.683-1.789,0-2.472L52.103,35.491z M44.588,21.419L14.679,51.324l6.31,6.309l29.904-29.905L44.588,21.419z
	 M37.585,32.066l7.261-7.259l2.66,2.661l-7.257,7.26L37.585,32.066z M59.617,27.59h-5.468c-0.964,0-1.748,0.784-1.748,1.748
	c0,0.965,0.784,1.748,1.748,1.748h5.468c0.964,0,1.748-0.783,1.748-1.748C61.365,28.374,60.581,27.59,59.617,27.59z"/>
</svg>
