<?xml version="1.0" encoding="utf-8"?>
<!-- Generator: Adobe Illustrator 16.0.4, SVG Export Plug-In . SVG Version: 6.00 Build 0)  -->
<!DOCTYPE svg PUBLIC "-//W3C//DTD SVG 1.1//EN" "http://www.w3.org/Graphics/SVG/1.1/DTD/svg11.dtd">
<svg version="1.1" id="Layer_1" xmlns="http://www.w3.org/2000/svg" xmlns:xlink="http://www.w3.org/1999/xlink" x="0px" y="0px"
	 width="72px" height="72px" viewBox="0 0 72 72" enable-background="new 0 0 72 72" xml:space="preserve">
<path d="M36.001,5.341c-16.571,0-30.003,13.431-30.003,30.001c0,16.567,13.433,30,30.003,30c16.569,0,30.002-13.433,30.002-30
	C66.003,18.772,52.57,5.341,36.001,5.341z M49.5,45.242c0,0-0.697,4.762-6.451,4.606c-5.752-0.155-6.83-6.293-2.84-8.901
	c3.989-2.61,7.291-0.844,7.291-0.844V27.211c0,0-10.406,0.463-16.471,2.92c0,0-0.013,16.799-0.013,19.024
	c0,2.227-2.964,4.912-7.184,4.757c-4.22-0.152-7.941-4.064-5.947-7.442c1.993-3.375,6.614-3.048,6.614-2.482V20.783
	c0,0,6.795-2.005,11.401-2.849c4.602-0.843,13.599-1.231,13.599-1.231V45.242z"/>
</svg>
