<?xml version="1.0" encoding="utf-8"?>
<!-- Generator: Adobe Illustrator 16.0.4, SVG Export Plug-In . SVG Version: 6.00 Build 0)  -->
<!DOCTYPE svg PUBLIC "-//W3C//DTD SVG 1.1//EN" "http://www.w3.org/Graphics/SVG/1.1/DTD/svg11.dtd">
<svg version="1.1" id="Layer_1" xmlns="http://www.w3.org/2000/svg" xmlns:xlink="http://www.w3.org/1999/xlink" x="0px" y="0px"
	 width="72px" height="72px" viewBox="0 0 72 72" enable-background="new 0 0 72 72" xml:space="preserve">
<path fill-rule="evenodd" clip-rule="evenodd" d="M64.202,24.267l-6.833,1.457c-1.017,0.287-3.778,2.325-8.575,6.25
	c-5.089,4.07-7.707,6.687-8.142,7.996l-0.292,3.636l-0.146,2.181l0.583,5.523l9.013,0.144l-0.146,2.764H34.982L21.898,54.36
	l0.437-2.616l4.214-0.146c2.182-0.145,3.492-0.437,3.926-0.872c0.291-0.287,0.436-2.036,0.436-5.088v-1.889l-0.146-3.779
	c-0.291-0.87-2.617-4.07-7.122-9.596c-4.653-5.669-7.707-9.015-9.161-10.179l-8.432-1.162v-2.473
	c0.438-0.287,5.089-0.287,13.667-0.144c5.959-0.144,10.903-0.144,14.828,0.144l-0.292,2.037l-8.868,0.875
	c2.762,4.07,6.979,9.738,12.648,16.864c7.416-5.672,11.341-9.307,11.484-10.904l-7.56-1.165l-0.581-2.618h12.647l11.922,0.148
	L64.202,24.267L64.202,24.267z"/>
</svg>
