<?xml version="1.0" encoding="utf-8"?>
<!-- Generator: Adobe Illustrator 16.0.4, SVG Export Plug-In . SVG Version: 6.00 Build 0)  -->
<!DOCTYPE svg PUBLIC "-//W3C//DTD SVG 1.1//EN" "http://www.w3.org/Graphics/SVG/1.1/DTD/svg11.dtd">
<svg version="1.1" id="Layer_1" xmlns="http://www.w3.org/2000/svg" xmlns:xlink="http://www.w3.org/1999/xlink" x="0px" y="0px"
	 width="72px" height="72px" viewBox="0 0 72 72" enable-background="new 0 0 72 72" xml:space="preserve">
<g> 
	<path fill="#7E8084" d="M26.069,14.112l-7.76,4.478l18.325,10.58l7.757-4.478L26.069,14.112z"/>
	<path fill="#7E8084" d="M54.841,18.662L36.516,8.083l-7.039,4.062 l18.322,10.579L54.841,18.662z"/>
	<path fill="#7E8084" d="M38.218,32.189v21.022l18.268-10.543V21.646L38.218,32.189z"/>
	<path fill="#7E8084" d="M16.546,42.669L34.81,53.212V32.054 L16.546,21.51V42.669z"/>
	<path fill="#7E8084" d="M25.706,60.277c0,1.369-0.354,2.41-1.061,3.123c-0.707,0.712-1.742,1.068-3.105,1.068c-1.344,0-2.374-0.358-3.091-1.074 s-1.075-1.759-1.075-3.129c0-1.354,0.356-2.389,1.069-3.103c0.713-0.715,1.749-1.071,3.108-1.071c1.363,0,2.396,0.354,3.1,1.062 S25.706,58.904,25.706,60.277z"/>
	<path fill="#7E8084" d="M19.812,60.277c0,1.573,0.576,2.36,1.729,2.36c0.586,0,1.021-0.191,1.304-0.573 c0.283-0.383,0.425-0.979,0.425-1.787c0-0.812-0.144-1.413-0.431-1.801s-0.716-0.582-1.286-0.582 C20.392,57.895,19.812,58.689,19.812,60.277z"/>
	<path fill="#7E8084" d="M30.552,64.357h-2.314v-6.34h-2.092V56.22h6.492v1.798h-2.086V64.357z"/>
	<path fill="#7E8084" d="M41.204,64.357h-2.325V61.04h-2.69v3.317h-2.326V56.22h2.326v3.017h2.69V56.22h2.325V64.357z"/>
	<path fill="#7E8084" d="M47.662,64.357h-5.086V56.22h5.086v1.765h-2.771v1.279h2.566v1.765h-2.566v1.537h2.771V64.357z"/>
	<path fill="#7E8084" d="M51.236,61.396v2.961h-2.314V56.22h2.807c2.328,0,3.492,0.801,3.492,2.404c0,0.942-0.484,1.672-1.453,2.188l2.496,3.546 h-2.625l-1.816-2.961H51.236z"/>
	<path fill="#7E8084" d="M51.236,59.743h0.434c0.809,0,1.213-0.34,1.213-1.019c0-0.561-0.396-0.841-1.189-0.841h-0.457 V59.743z"/>
</g>
</svg>
