<?xml version="1.0" encoding="utf-8"?>
<!-- Generator: Adobe Illustrator 16.0.4, SVG Export Plug-In . SVG Version: 6.00 Build 0)  -->
<!DOCTYPE svg PUBLIC "-//W3C//DTD SVG 1.1//EN" "http://www.w3.org/Graphics/SVG/1.1/DTD/svg11.dtd">
<svg version="1.1" id="Layer_1" xmlns="http://www.w3.org/2000/svg" xmlns:xlink="http://www.w3.org/1999/xlink" x="0px" y="0px"
	 width="72px" height="72px" viewBox="0 0 72 72" enable-background="new 0 0 72 72" xml:space="preserve">
<path fill="#777B81" d="M37.793,35.72V22.339c0-1.311-1.064-2.375-2.376-2.375c-1.311,0-2.375,1.064-2.375,2.375v15.304l7.366,7.607
	c0.466,0.479,1.089,0.723,1.708,0.723c0.594,0,1.188-0.223,1.653-0.67c0.941-0.914,0.963-2.416,0.052-3.36L37.793,35.72z"/>
<path fill="#777B81" d="M35.417,13.329c12.5,0,22.671,10.17,22.671,22.671c0,12.5-10.171,22.671-22.671,22.671
	c-12.5,0-22.67-10.171-22.67-22.671C12.747,23.5,22.917,13.329,35.417,13.329 M35.417,8.425C20.188,8.425,7.842,20.771,7.842,36
	c0,15.229,12.346,27.575,27.575,27.575c15.229,0,27.575-12.346,27.575-27.575C62.992,20.771,50.646,8.425,35.417,8.425L35.417,8.425
	z"/>
</svg>
