<?xml version="1.0" encoding="utf-8"?>
<!-- Generator: Adobe Illustrator 17.0.0, SVG Export Plug-In . SVG Version: 6.00 Build 0)  -->
<!DOCTYPE svg PUBLIC "-//W3C//DTD SVG 1.1//EN" "http://www.w3.org/Graphics/SVG/1.1/DTD/svg11.dtd">
<svg version="1.1" id="Layer_1" xmlns="http://www.w3.org/2000/svg" xmlns:xlink="http://www.w3.org/1999/xlink" x="0px" y="0px"
	 width="72px" height="72px" viewBox="0 0 72 72" enable-background="new 0 0 72 72" xml:space="preserve">
<g>
	<path fill="#B5B9BE" d="M64.991,35.64L54.809,22.543L44.624,35.64h6.749c-0.311,10.68-7.363,19.864-17.439,21.63
		c-6.271,1.099-12.424-0.9-17.125-4.96c5.621,6.068,13.696,9.265,21.945,7.818c11.484-2.012,19.587-12.362,20.15-24.488H64.991z"/>
	<path fill="#B5B9BE" d="M18.627,34.399c0.311-10.68,7.363-19.866,17.439-21.63c6.27-1.1,12.424,0.9,17.125,4.959
		C47.57,11.66,39.496,8.465,31.246,9.91c-11.484,2.013-19.587,12.363-20.151,24.489H5.008l10.183,13.096l10.185-13.096
		C25.376,34.399,18.627,34.399,18.627,34.399z"/>
</g>
</svg>
