<?xml version="1.0" encoding="utf-8"?>
<!-- Generator: Adobe Illustrator 16.0.4, SVG Export Plug-In . SVG Version: 6.00 Build 0)  -->
<!DOCTYPE svg PUBLIC "-//W3C//DTD SVG 1.1//EN" "http://www.w3.org/Graphics/SVG/1.1/DTD/svg11.dtd">
<svg version="1.1" id="Layer_1" xmlns="http://www.w3.org/2000/svg" xmlns:xlink="http://www.w3.org/1999/xlink" x="0px" y="0px"
	 width="72px" height="72px" viewBox="0 0 72 72" enable-background="new 0 0 72 72" xml:space="preserve">
<g>
	<path fill="#7E8084" d="M11.419,13.94c-1.928,2.4-6.197,13.833,12.101,32.55c19.277,19.724,31.711,15.502,33.851,13.282
		L44.483,46.903c-1.802,1.798-4.12,0.198-8.572-3.425c-2.94-2.396-6.333-5.617-9.273-9.255c-2.061-2.548-3.886-5.223-2.002-7.106
		L11.419,13.94z"/>
	<path fill="#7E8084" d="M62.033,55.167c0.832-0.838,0.752-2.107-0.009-2.871v-0.014c0,0-10.059-10.021-10.063-10.024
		c-0.796-0.794-2.069-0.776-2.859,0.004l-3.645,3.647l12.92,12.901c0,0,3.651-3.636,3.647-3.64L62.033,55.167z"/>
	<path fill="#7E8084" d="M29.28,22.48c0.836-0.838,0.758-2.107,0-2.867V19.6c0,0-10.345-10.309-10.349-10.314
		c-0.798-0.798-2.071-0.775-2.86,0.005l-3.645,3.649l13.208,13.183c0,0,3.646-3.63,3.646-3.634V22.48z"/>
</g>
<path fill="#7E8084" d="M47.359,33.744v-5.503l12.967,0.001l-0.001-7.349H47.358l0.001-5.407l-9.129,9.129L47.359,33.744z"/>
</svg>
