<?xml version="1.0" encoding="utf-8"?>
<!-- Generator: Adobe Illustrator 16.0.4, SVG Export Plug-In . SVG Version: 6.00 Build 0)  -->
<!DOCTYPE svg PUBLIC "-//W3C//DTD SVG 1.1//EN" "http://www.w3.org/Graphics/SVG/1.1/DTD/svg11.dtd">
<svg version="1.1" id="Layer_1" xmlns="http://www.w3.org/2000/svg" xmlns:xlink="http://www.w3.org/1999/xlink" x="0px" y="0px"
	 width="72px" height="72px" viewBox="0 0 72 72" enable-background="new 0 0 72 72" xml:space="preserve">
<path fill="#7E8084" d="M25.79,31.188c0.453,0,0.908-0.173,1.254-0.519c0.693-0.692,0.693-1.816,0.001-2.509h-0.001
	c-0.898-0.897-1.339-2.058-1.34-3.238c0.001-1.176,0.442-2.337,1.34-3.236c0.693-0.692,0.693-1.815,0.001-2.507
	c-0.694-0.694-1.816-0.694-2.509-0.001c-1.583,1.582-2.383,3.672-2.38,5.745c-0.003,2.074,0.797,4.165,2.38,5.747
	C24.883,31.016,25.336,31.188,25.79,31.188z M45.871,19.18c-0.693,0.692-0.693,1.815,0,2.507c0.897,0.899,1.339,2.06,1.339,3.238
	c0,1.176-0.441,2.338-1.339,3.236c-0.693,0.694-0.693,1.816,0,2.509c0.347,0.346,0.8,0.519,1.253,0.519s0.91-0.173,1.256-0.519
	c1.581-1.582,2.38-3.671,2.38-5.745c0-2.074-0.799-4.165-2.38-5.747C47.685,18.486,46.563,18.486,45.871,19.18z M21.366,31.7
	c-1.875-1.876-2.806-4.319-2.806-6.777c0-2.458,0.931-4.899,2.806-6.775c0.692-0.692,0.692-1.815,0-2.507s-1.816-0.692-2.509,0
	c-2.561,2.558-3.847,5.929-3.846,9.283c-0.001,3.354,1.285,6.725,3.846,9.287c0.346,0.346,0.799,0.518,1.254,0.518
	s0.908-0.172,1.254-0.518C22.059,33.514,22.059,32.393,21.366,31.7L21.366,31.7z M54.056,15.64c-0.692-0.694-1.816-0.694-2.509,0
	c-0.691,0.692-0.691,1.815,0,2.507c1.875,1.876,2.807,4.317,2.81,6.777c-0.003,2.458-0.935,4.899-2.81,6.775
	c-0.691,0.692-0.691,1.817,0,2.509c0.347,0.346,0.803,0.518,1.256,0.518c0.454,0,0.907-0.172,1.253-0.518
	c2.562-2.562,3.848-5.931,3.848-9.285C57.903,21.57,56.617,18.199,54.056,15.64z M36.437,30.195c2.913,0,5.272-2.359,5.272-5.27
	c0-2.912-2.359-5.272-5.272-5.272c-2.91,0-5.271,2.36-5.271,5.272C31.167,27.836,33.527,30.195,36.437,30.195z"/>
<path fill="#7E8084" d="M46.642,58.084h3.517l-9.703-26.523l-0.742,0.351c-0.501,0.237-1.022,0.418-1.55,0.539l-0.432,0.098
	l-0.399,0.046c-0.577,0.065-1.174,0.065-1.748,0l-0.403-0.046l-0.43-0.098c-0.526-0.12-1.047-0.301-1.549-0.538l-0.743-0.351
	l-9.702,26.522h3.516l1.328-3.63l7.147,3.574v3.946h3.418v-3.947l7.146-3.573L46.642,58.084z M38.167,34.919l2.23,6.095l-2.23,1.015
	V34.919z M34.749,41.681l-2.065-1.121l2.065-5.644V41.681z M31.989,42.458l2.759,1.497v4.957l-4.329-2.163L31.989,42.458z
	 M38.167,44.226l2.919-1.327l1.409,3.851l-4.328,2.163V44.226z M28.293,52.563l1.436-3.924l5.02,2.509v4.644L28.293,52.563z
	 M38.167,55.791v-4.643l5.02-2.509l1.436,3.924L38.167,55.791z"/>
</svg>
