<?xml version="1.0" encoding="utf-8"?>
<!-- Generator: Adobe Illustrator 16.0.4, SVG Export Plug-In . SVG Version: 6.00 Build 0)  -->
<!DOCTYPE svg PUBLIC "-//W3C//DTD SVG 1.1//EN" "http://www.w3.org/Graphics/SVG/1.1/DTD/svg11.dtd">
<svg version="1.1" id="Layer_1" xmlns="http://www.w3.org/2000/svg" xmlns:xlink="http://www.w3.org/1999/xlink" x="0px" y="0px"
	 width="72px" height="72px" viewBox="0 0 72 72" enable-background="new 0 0 72 72" xml:space="preserve">
<path d="M64.166,42.438c0.433-1.974,0.666-4.021,0.666-6.127c0-15.74-12.769-28.509-28.513-28.509c-1.665,0-3.296,0.141-4.878,0.416
	c-2.547-1.606-5.561-2.539-8.798-2.539c-9.131,0-16.54,7.409-16.54,16.531c0,3.063,0.833,5.918,2.272,8.374
	c-0.375,1.848-0.574,3.771-0.574,5.727c0,15.749,12.769,28.518,28.518,28.518c1.781,0,3.529-0.158,5.223-0.475
	c2.313,1.249,4.978,1.965,7.808,1.965c9.14,0,16.548-7.4,16.548-16.54C65.897,47.14,65.265,44.651,64.166,42.438z M50.948,49.945
	c-1.332,1.864-3.28,3.346-5.794,4.395c-2.514,1.041-5.506,1.565-8.919,1.565c-4.095,0-7.525-0.716-10.205-2.14
	c-1.915-1.04-3.496-2.438-4.694-4.17c-1.215-1.748-1.832-3.479-1.832-5.145c0-1.049,0.399-1.956,1.19-2.696
	c0.782-0.733,1.781-1.107,2.98-1.107c0.974,0,1.823,0.291,2.505,0.874c0.666,0.558,1.224,1.382,1.682,2.447
	c0.499,1.148,1.048,2.131,1.631,2.896c0.566,0.741,1.365,1.365,2.397,1.848c1.032,0.491,2.422,0.741,4.137,0.741
	c2.355,0,4.282-0.508,5.748-1.49c1.415-0.974,2.097-2.139,2.097-3.562c0-1.132-0.35-2.015-1.099-2.705
	c-0.766-0.725-1.798-1.29-3.042-1.682c-1.29-0.399-3.047-0.841-5.228-1.29c-2.955-0.633-5.477-1.39-7.475-2.239
	c-2.048-0.874-3.696-2.072-4.895-3.587c-1.232-1.532-1.848-3.455-1.848-5.71c0-2.156,0.649-4.096,1.939-5.777
	c1.273-1.665,3.138-2.955,5.535-3.846c2.364-0.866,5.177-1.315,8.365-1.315c2.547,0,4.782,0.3,6.646,0.883
	c1.882,0.583,3.463,1.365,4.712,2.347c1.265,0.974,2.197,2.022,2.78,3.113c0.582,1.099,0.882,2.198,0.882,3.255
	c0,1.016-0.383,1.939-1.165,2.755c-0.782,0.807-1.765,1.215-2.931,1.215c-1.048,0-1.881-0.25-2.446-0.766
	c-0.533-0.466-1.1-1.199-1.715-2.264c-0.699-1.348-1.565-2.414-2.548-3.163c-0.961-0.732-2.56-1.099-4.765-1.099
	c-2.039,0-3.704,0.408-4.936,1.215c-1.198,0.782-1.765,1.682-1.765,2.73c0,0.658,0.183,1.199,0.566,1.665
	c0.399,0.5,0.965,0.932,1.698,1.29c0.749,0.375,1.515,0.674,2.297,0.891c0.783,0.217,2.114,0.549,3.945,0.966
	c2.298,0.5,4.425,1.049,6.306,1.648c1.897,0.616,3.529,1.365,4.878,2.231c1.365,0.891,2.447,2.031,3.213,3.396
	c0.766,1.364,1.148,3.062,1.148,5.027C52.929,45.933,52.263,48.072,50.948,49.945z"/>
</svg>
