<?xml version="1.0" encoding="utf-8"?>
<!-- Generator: Adobe Illustrator 16.0.4, SVG Export Plug-In . SVG Version: 6.00 Build 0)  -->
<!DOCTYPE svg PUBLIC "-//W3C//DTD SVG 1.1//EN" "http://www.w3.org/Graphics/SVG/1.1/DTD/svg11.dtd">
<svg version="1.1" id="Layer_1" xmlns="http://www.w3.org/2000/svg" xmlns:xlink="http://www.w3.org/1999/xlink" x="0px" y="0px"
	 width="72px" height="72px" viewBox="0 0 72 72" enable-background="new 0 0 72 72" xml:space="preserve">
<g>
	<path fill="#7E8084" d="M44.41,33.146c0.84,0,1.527-0.687,1.527-1.526v-2.035c0-0.838-0.688-1.526-1.527-1.526h-1.051
		c-0.84,0-1.707-0.556-1.924-1.235c-0.221-0.679-0.592-2.797,0.002-3.391l0.748-0.746c0.594-0.594,0.594-1.565,0-2.161l-1.436-1.438
		c-0.594-0.594-1.568-0.594-2.16,0l-0.75,0.75c-0.592,0.592-1.588,0.812-2.213,0.488c-0.623-0.325-2.406-1.569-2.406-2.409v-1.055
		c0-0.84-0.688-1.527-1.527-1.527h-2.037c-0.841,0-1.526,0.688-1.526,1.527v1.055c0,0.84-0.555,1.707-1.236,1.925
		c-0.679,0.218-2.794,0.586-3.386-0.006l-0.753-0.75c-0.592-0.594-1.565-0.594-2.159,0l-1.436,1.438
		c-0.595,0.596-0.595,1.566,0,2.16l0.747,0.748c0.595,0.594,0.812,1.59,0.489,2.212c-0.325,0.625-1.568,2.412-2.408,2.412
		l-1.059-0.001c-0.841,0-1.527,0.687-1.527,1.526v2.037c0,0.838,0.686,1.526,1.527,1.526h1.059c0.839,0,1.706,0.554,1.922,1.233
		c0.221,0.68,0.59,2.796-0.006,3.388l-0.75,0.752c-0.595,0.592-0.595,1.562-0.001,2.157l1.44,1.438c0.593,0.595,1.567,0.595,2.159,0
		l0.75-0.747c0.592-0.592,1.591-0.812,2.215-0.489c0.622,0.325,2.41,1.567,2.407,2.408v1.056c-0.002,0.838,0.686,1.526,1.525,1.526
		h2.037c0.841,0,1.527-0.688,1.527-1.526v-1.055c0-0.839,0.556-1.707,1.239-1.925c0.68-0.217,2.796-0.587,3.388,0.007l0.75,0.745
		c0.592,0.595,1.566,0.595,2.16,0l1.436-1.436c0.594-0.595,0.594-1.564,0-2.159l-0.748-0.75c-0.594-0.592-0.812-1.59-0.488-2.212
		c0.324-0.625,1.57-2.412,2.41-2.411H44.41z M30.671,37.218c-3.654,0-6.618-2.964-6.618-6.616c0-3.654,2.964-6.616,6.618-6.616
		c3.655,0,6.62,2.962,6.62,6.616C37.291,34.254,34.326,37.218,30.671,37.218"/>
	<path fill="#7E8084" d="M55.682,51.969c0.504,0.001,0.914-0.41,0.914-0.911v-1.219c0-0.504-0.41-0.914-0.914-0.914h-0.623
		c-0.502,0-1.02-0.332-1.154-0.738c-0.133-0.404-0.354-1.673,0.002-2.029l0.447-0.446c0.355-0.355,0.355-0.935,0-1.291l-0.855-0.86
		c-0.357-0.356-0.939-0.356-1.291,0l-0.451,0.446c-0.355,0.354-0.951,0.486-1.324,0.292c-0.373-0.196-1.441-0.937-1.441-1.439
		v-0.633c0-0.504-0.41-0.914-0.914-0.914h-1.217c-0.502,0-0.912,0.41-0.912,0.914v0.633c0,0.503-0.332,1.019-0.738,1.151
		c-0.408,0.129-1.674,0.351-2.029-0.004l-0.447-0.45c-0.352-0.354-0.934-0.354-1.289,0l-0.863,0.861
		c-0.354,0.355-0.354,0.938,0,1.294l0.447,0.446c0.352,0.356,0.482,0.952,0.291,1.325c-0.197,0.372-0.941,1.441-1.443,1.441h-0.633
		c-0.502,0-0.912,0.411-0.912,0.913v1.218c0,0.504,0.41,0.914,0.912,0.914h0.633c0.502,0,1.02,0.332,1.154,0.738
		c0.131,0.404,0.35,1.67-0.006,2.026l-0.447,0.45c-0.357,0.354-0.357,0.935,0,1.29l0.863,0.864c0.359,0.353,0.941,0.353,1.295-0.004
		l0.443-0.446c0.357-0.354,0.953-0.487,1.324-0.292c0.373,0.196,1.438,0.937,1.438,1.438v0.633c0,0.502,0.412,0.914,0.912,0.914
		h1.225c0.504,0,0.914-0.412,0.914-0.914v-0.633c0-0.501,0.334-1.018,0.738-1.148c0.408-0.13,1.672-0.352,2.027,0.003l0.451,0.446
		c0.352,0.356,0.934,0.356,1.291,0l0.855-0.857c0.355-0.355,0.355-0.937,0-1.293l-0.447-0.446c-0.355-0.356-0.484-0.953-0.291-1.325
		c0.197-0.375,0.932-1.443,1.436-1.443H55.682z M50.514,50.446c0,1.682-1.361,3.045-3.045,3.045s-3.045-1.363-3.045-3.045
		s1.361-3.045,3.045-3.045S50.514,48.765,50.514,50.446"/>
</g>
</svg>
