<?xml version="1.0" encoding="utf-8"?>
<!-- Generator: Adobe Illustrator 16.0.4, SVG Export Plug-In . SVG Version: 6.00 Build 0)  -->
<!DOCTYPE svg PUBLIC "-//W3C//DTD SVG 1.1//EN" "http://www.w3.org/Graphics/SVG/1.1/DTD/svg11.dtd">
<svg version="1.1" id="Layer_1" xmlns="http://www.w3.org/2000/svg" xmlns:xlink="http://www.w3.org/1999/xlink" x="0px" y="0px"
	 width="72px" height="72px" viewBox="0 0 72 72" enable-background="new 0 0 72 72" xml:space="preserve">
<path d="M36.809,48.914h-3.887c-0.711,0-1.292,0.594-1.292,1.316l0.004,8.49c0,0.553-0.438,1.004-0.975,1.004H18.551 c-0.538,0-0.982-0.451-0.982-1.004V46.338c0.007-0.537,0.444-0.988,0.982-0.988c0.007,0,8.565,0.016,8.565,0.016 c0.715,0,1.283-0.588,1.283-1.316v-3.957c0-0.721-0.568-1.305-1.283-1.305H14.672c-1.957,0-3.557,1.623-3.557,3.615v20.27 c0,1.99,1.597,3.611,3.557,3.611h20.031c1.907,0,3.403-1.582,3.403-3.611V50.23C38.105,49.508,37.518,48.914,36.809,48.914  M42.809,35.215h3.945c0.703,0,1.285-0.59,1.285-1.312v-4.005c0-0.719-0.578-1.308-1.285-1.308h-3.945 c-0.707,0-1.285,0.589-1.285,1.308v4.005C41.523,34.625,42.102,35.215,42.809,35.215 M36.818,38.787h-3.88 c-0.704,0-1.283,0.584-1.283,1.305v4.002c0,0.719,0.579,1.316,1.283,1.316h3.88c0.719,0,1.291-0.6,1.291-1.316v-4.002 C38.109,39.371,37.537,38.787,36.818,38.787 M42.838,25.241h3.551c0.705,0,1.289-0.588,1.289-1.316v-1.736 c0.008-0.446,0.377-0.819,0.826-0.819h6.033c0.453,0,0.826,0.373,0.826,0.841v5.979c0,0.454-0.383,0.839-0.826,0.839h-1.92 c-0.709,0-1.291,0.591-1.291,1.318v3.647c0,0.722,0.58,1.312,1.291,1.312h4.686c1.959,0,3.496-1.571,3.496-3.557V19.134 c0-1.998-1.6-3.613-3.551-3.613H45.105c-1.959,0-3.549,1.615-3.549,3.613v4.79C41.557,24.652,42.133,25.241,42.838,25.241 M42.809,45.41h3.945c0.703,0,1.285-0.6,1.285-1.316v-4.002c0-0.721-0.578-1.305-1.285-1.305h-3.945 c-0.707,0-1.285,0.584-1.285,1.305v4.002C41.523,44.812,42.102,45.41,42.809,45.41 M60.713,38.748h-8.096 c-0.709,0-1.291,0.596-1.291,1.318v4.145c0,0.533,0.338,1.096,1.291,1.096h5.018c0.449,0.014,0.836,0.414,0.836,0.893v9.277 c0,0.502-0.396,0.906-0.885,0.906h-8.592c-0.473,0-0.875-0.4-0.881-0.891v-5.307c0-0.717-0.584-1.303-1.295-1.303h-3.92 c-0.713,0-1.291,0.586-1.291,1.303v8.49c0,1.986,1.594,3.609,3.557,3.609h15.547c1.955,0,3.557-1.623,3.557-3.609V42.377 C64.268,40.379,62.668,38.748,60.713,38.748 M35.035,4.4H11.286c-1.963,0-3.554,1.63-3.554,3.612v23.675 c0,1.987,1.591,3.617,3.554,3.617h15.774c0.746-0.05,1.279-0.622,1.279-1.312v-4.002c0-0.697-0.533-1.275-1.218-1.314h-11.47 c-0.542,0-0.979-0.45-0.979-0.993V12.464c0-0.554,0.438-1,0.979-1h14.97c0.54,0,0.967,0.446,0.967,1v11.518 c0,0.747,0.585,1.34,1.294,1.34h3.936c0.719,0,1.291-0.594,1.291-1.305V8.011C38.109,5.854,36.873,4.4,35.035,4.4 M36.818,28.591 h-3.88c-0.704,0-1.283,0.589-1.283,1.308v4.005c0,0.722,0.579,1.312,1.283,1.312h3.88c0.719,0,1.291-0.59,1.291-1.312v-4.005 C38.109,29.18,37.537,28.591,36.818,28.591"/>
</svg>
