<?xml version="1.0" encoding="utf-8"?>
<!-- Generator: Adobe Illustrator 16.0.4, SVG Export Plug-In . SVG Version: 6.00 Build 0)  -->
<!DOCTYPE svg PUBLIC "-//W3C//DTD SVG 1.1//EN" "http://www.w3.org/Graphics/SVG/1.1/DTD/svg11.dtd">
<svg version="1.1" id="Layer_1" xmlns="http://www.w3.org/2000/svg" xmlns:xlink="http://www.w3.org/1999/xlink" x="0px" y="0px"
	 width="72px" height="72px" viewBox="0 0 72 72" enable-background="new 0 0 72 72" xml:space="preserve">
<path fill="#FFFFFF" d="M59.265,49.343c-1.009-1.067-2.215-1.639-3.688-2.198c-0.079-0.029-0.167-0.06-0.247-0.089
	c-5.89-5.096-3.128-9.178-3.128-14.387c0-5.165-5.146-13.032-12.082-15.275c0.025-0.183,0.042-0.368,0.042-0.557
	c0-2.298-1.862-4.16-4.162-4.16c-2.296,0-4.158,1.862-4.158,4.16c0,0.256,0.026,0.506,0.067,0.75
	C25.275,20.03,20.42,27.494,20.42,32.669c0,5.166,2.456,9.242-2.88,14.102c-1.072,0.327-2.026,0.701-2.868,1.139
	c-0.714,0.383-1.361,0.812-1.937,1.434c-0.563,0.601-1.089,1.53-1.085,2.636c-0.004,1.106,0.521,2.034,1.085,2.637
	c1.013,1.067,2.219,1.639,3.686,2.198c2.195,0.802,5.029,1.408,8.362,1.841c3.329,0.43,7.151,0.668,11.216,0.668
	c6.201-0.004,11.809-0.553,16.025-1.491c2.115-0.479,3.872-1.034,5.301-1.782c0.72-0.387,1.362-0.812,1.938-1.434
	c0.563-0.603,1.089-1.53,1.085-2.637C60.354,50.873,59.828,49.943,59.265,49.343z M53.935,52.209
	c-1.632,0.615-4.204,1.195-7.298,1.594c-3.104,0.399-6.748,0.636-10.637,0.632c-5.898,0.004-11.242-0.543-14.958-1.376
	c-1.493-0.331-2.729-0.718-3.561-1.08c0.176-0.08,0.374-0.156,0.584-0.229c1.636-0.615,4.204-1.195,7.302-1.594
	c2.064-0.266,4.377-0.455,6.836-0.556c0.378,1.748,1.933,3.056,3.796,3.056c1.862,0,3.418-1.308,3.8-3.056
	c4.369,0.177,8.262,0.647,11.158,1.3c1.492,0.331,2.728,0.718,3.561,1.079C54.342,52.06,54.148,52.136,53.935,52.209z"/>
</svg>
