<?xml version="1.0" encoding="utf-8"?>
<!-- Generator: Adobe Illustrator 16.0.4, SVG Export Plug-In . SVG Version: 6.00 Build 0)  -->
<!DOCTYPE svg PUBLIC "-//W3C//DTD SVG 1.1//EN" "http://www.w3.org/Graphics/SVG/1.1/DTD/svg11.dtd">
<svg version="1.1" id="Layer_1" xmlns="http://www.w3.org/2000/svg" xmlns:xlink="http://www.w3.org/1999/xlink" x="0px" y="0px"
	 width="72px" height="72px" viewBox="0 0 72 72" enable-background="new 0 0 72 72" xml:space="preserve">
<g>
	<path fill="#FFFFFF" d="M36,32.319c-2.032,0-3.681,1.65-3.681,3.681s1.648,3.682,3.681,3.682s3.682-1.65,3.682-3.682
		S38.032,32.319,36,32.319"/>
	<path fill="#FFFFFF" d="M36,21.278C23.805,21.278,13.917,36,13.917,36S23.805,50.723,36,50.723C48.195,50.723,58.083,36,58.083,36
		S48.195,21.278,36,21.278 M36,45.201c-5.081,0-9.201-4.121-9.201-9.201S30.92,26.799,36,26.799S45.201,30.92,45.201,36
		S41.08,45.201,36,45.201"/>
</g>
</svg>
