<?xml version="1.0" encoding="utf-8"?>
<!-- Generator: Adobe Illustrator 16.0.4, SVG Export Plug-In . SVG Version: 6.00 Build 0)  -->
<!DOCTYPE svg PUBLIC "-//W3C//DTD SVG 1.1//EN" "http://www.w3.org/Graphics/SVG/1.1/DTD/svg11.dtd">
<svg version="1.1" id="Layer_1" xmlns="http://www.w3.org/2000/svg" xmlns:xlink="http://www.w3.org/1999/xlink" x="0px" y="0px"
	 width="72px" height="72px" viewBox="0 0 72 72" enable-background="new 0 0 72 72" xml:space="preserve">
<path fill-rule="evenodd" clip-rule="evenodd" d="M54.844,17.078h-37.55L8.14,25.332l27.468,29.59l28.251-28.827L54.844,17.078z
	 M16.941,29.508l-3.011-3.267l4.8-4.733l2.366,0.156C17.625,23.269,16.325,26.71,16.941,29.508z M35.902,48.949l-5.291-5.156
	c3.686,0.91,7.187,1.391,9.994,0.334L35.902,48.949z M38.668,41.105c-2.092-0.078-4.174-0.381-6.267-0.9
	c-0.92-2.807-4.068-2.943-6.269-1.145l-3.168-3.265c4.088,0.832,8.869,1.166,14.483,0.898
	C46.658,37.213,47.314,40.725,38.668,41.105z M43.461,28.696c-4.312,0.567-8.292,0.596-11.95,0.078
	c-5.692-0.978-5.574-4.547-0.489-6.454c6.464-1.672,12.8,0.176,16.097,3.432v1.31h7.568l0.078-4.166l3.422,2.934l-6.102,6.288
	C51.322,29.459,47.637,27.982,43.461,28.696z"/>
<path fill-rule="evenodd" clip-rule="evenodd" d="M48.174,21.665h0.939c-0.205,0.303-0.342,0.656-0.449,0.988
	C48.574,22.281,48.408,21.948,48.174,21.665L48.174,21.665z"/>
</svg>
