<?xml version="1.0" encoding="utf-8"?>
<!-- Generator: Adobe Illustrator 16.0.4, SVG Export Plug-In . SVG Version: 6.00 Build 0)  -->
<!DOCTYPE svg PUBLIC "-//W3C//DTD SVG 1.1//EN" "http://www.w3.org/Graphics/SVG/1.1/DTD/svg11.dtd">
<svg version="1.1" id="Layer_1" xmlns="http://www.w3.org/2000/svg" xmlns:xlink="http://www.w3.org/1999/xlink" x="0px" y="0px"
	 width="72px" height="72px" viewBox="0 0 72 72" enable-background="new 0 0 72 72" xml:space="preserve">
<g>
	<path opacity="0.2" fill-rule="evenodd" clip-rule="evenodd" d="M26.073,44.53c-1.785-2.075-2.924-4.713-3.125-7.613h-7.485
		c0.219,4.965,2.188,9.463,5.317,12.906L26.073,44.53z"/>
	<path opacity="0.2" fill-rule="evenodd" clip-rule="evenodd" d="M22.952,35c0.219-2.888,1.371-5.511,3.16-7.573l-5.293-5.293
		c-3.134,3.429-5.114,7.914-5.353,12.867L22.952,35z"/>
	<path opacity="0.2" fill-rule="evenodd" clip-rule="evenodd" d="M27.47,26.074c2.065-1.776,4.688-2.914,7.572-3.123v-7.485
		c-4.948,0.229-9.432,2.195-12.865,5.315L27.47,26.074z"/>
	<path fill-rule="evenodd" clip-rule="evenodd" d="M36.958,15.465v7.485c2.884,0.209,5.507,1.347,7.571,3.123l5.293-5.293
		C46.39,17.661,41.906,15.694,36.958,15.465z"/>
	<path fill-rule="evenodd" clip-rule="evenodd" d="M49.052,36.917c-0.202,2.9-1.341,5.538-3.125,7.613l5.293,5.293
		c3.128-3.443,5.098-7.941,5.317-12.906H49.052z"/>
	<path fill-rule="evenodd" clip-rule="evenodd" d="M45.887,27.426c1.789,2.062,2.941,4.685,3.16,7.574h7.485
		c-0.238-4.953-2.219-9.438-5.353-12.867L45.887,27.426z"/>
	<path opacity="0.2" fill-rule="evenodd" clip-rule="evenodd" d="M35.042,49.049c-2.905-0.211-5.543-1.363-7.615-3.162l-5.293,5.293
		c3.439,3.144,7.939,5.125,12.908,5.354V49.049z"/>
	<path opacity="0.2" fill-rule="evenodd" clip-rule="evenodd" d="M44.573,45.888c-2.072,1.798-4.71,2.951-7.615,3.161v7.485
		c4.969-0.229,9.469-2.211,12.908-5.354L44.573,45.888z"/>
</g>
</svg>
