<?xml version="1.0" encoding="utf-8"?>
<!-- Generator: Adobe Illustrator 16.0.4, SVG Export Plug-In . SVG Version: 6.00 Build 0)  -->
<!DOCTYPE svg PUBLIC "-//W3C//DTD SVG 1.1//EN" "http://www.w3.org/Graphics/SVG/1.1/DTD/svg11.dtd">
<svg version="1.1" id="Layer_1" xmlns="http://www.w3.org/2000/svg" xmlns:xlink="http://www.w3.org/1999/xlink" x="0px" y="0px"
	 width="72px" height="72px" viewBox="0 0 72 72" enable-background="new 0 0 72 72" xml:space="preserve">
<g>
	<path fill-rule="evenodd" clip-rule="evenodd" d="M67.271,29.422h0.412c0.003,0.006,0.004,0.011,0.006,0.016 c0.067,0.146,0.135,0.292,0.195,0.439c0.067,0.165,0.127,0.333,0.2,0.496c0.003,0.005,0.005,0.011,0.006,0.016 c0.054-0.12,0.136-0.314,0.189-0.435c0.05-0.111,0.099-0.225,0.148-0.336c0.02-0.044,0.023-0.053,0.023-0.067 c0-0.037-0.039-0.037-0.073-0.037l-0.15,0.006l0.15-0.098h0.552l-0.04,0.037c-0.039,0.037-0.061,0.062-0.061,0.133 c0,0.024,0.003,0.048,0.006,0.073c0.01,0.109,0.02,0.217,0.027,0.325c0.012,0.143,0.026,0.285,0.053,0.426 c0.021,0.114,0.045,0.156,0.128,0.218c-0.091,0.017-0.153,0.026-0.244,0.026c-0.037,0-0.103,0-0.163-0.045 c-0.07-0.055-0.08-0.143-0.093-0.299c-0.01-0.106-0.021-0.213-0.029-0.319c-0.007-0.102-0.01-0.202-0.02-0.304l-0.002-0.021 l-0.01,0.022c-0.061,0.13-0.116,0.264-0.175,0.395c-0.135,0.312-0.146,0.333-0.172,0.417l0.019,0.052 c-0.05,0.012-0.245,0.077-0.318,0.104c-0.055-0.153-0.249-0.65-0.403-0.99c-0.015,0.144-0.029,0.288-0.042,0.433 c-0.005,0.048-0.033,0.369-0.033,0.398c0,0.037,0.009,0.047,0.075,0.055l0.151,0.021l-0.088,0.054h-0.319l0.045-0.054 c0.008-0.012,0.017-0.021,0.022-0.037c0.01-0.027,0.016-0.076,0.021-0.144c0.013-0.105,0.026-0.208,0.039-0.312 c0.006-0.065,0.039-0.385,0.047-0.459c0.003-0.018,0.004-0.036,0.004-0.054c0-0.044-0.017-0.066-0.069-0.066 c-0.023,0-0.134,0.003-0.158,0.003L67.271,29.422L67.271,29.422z M67.195,29.422l-0.075,0.175l-0.076,0.034c0.005-0.016,0.019-0.08,0.019-0.086 c0-0.041-0.047-0.042-0.095-0.042l-0.239,0.001c-0.021,0.67-0.021,0.729-0.021,0.819c0,0.048,0,0.087,0.004,0.146 c0.005,0.073,0.029,0.089,0.108,0.094l0.146,0.016l-0.112,0.055h-0.571l0.038-0.055c0.038-0.057,0.044-0.065,0.044-0.104 c0.001-0.037,0-0.214,0-0.254c0-0.072,0-0.146,0.001-0.218c0.005-0.147,0.014-0.295,0.014-0.441c0-0.023-0.002-0.052-0.002-0.059 h-0.209c-0.104,0.004-0.106,0.007-0.163,0.093l-0.092,0.034l0.092-0.209H67.195L67.195,29.422z M64.973,39.22c-0.24,0.132-0.482,0.286-0.725,0.396 c-0.725,0.329-1.473,0.417-2.131,0.417c-0.703,0-1.802-0.044-2.923-0.857c-1.559-1.098-2.24-2.988-2.24-4.636 c0-3.405,2.768-5.076,5.031-5.076c0.79,0,1.604,0.198,2.263,0.616c1.1,0.725,1.385,1.67,1.538,2.175l-5.163,2.087l-1.691,0.133 c0.549,2.79,2.438,4.416,4.526,4.416c1.12,0,1.933-0.395,2.681-0.769L64.973,39.22L64.973,39.22z M62.908,32.673 c0.417-0.154,0.637-0.286,0.637-0.594c0-0.879-0.988-1.89-2.175-1.89c-0.879,0-2.526,0.682-2.526,3.055 c0,0.373,0.044,0.769,0.065,1.164L62.908,32.673L62.908,32.673z M56.426,39.703h-3.889c0.506-0.659,0.594-0.725,0.594-1.163v-3.582 c0-1.714,0.021-4.153,0.088-6.438c0.021-1.12,0.109-2.526,0.132-3.537h-1.714l1.648-0.791h3.141 c-0.681,0.396-0.9,0.527-0.988,1.297c-0.176,1.691-0.197,4.372-0.197,7.491v5.076c0,0.857,0.153,0.988,0.879,1.055 c0.374,0.044,0.747,0.065,1.12,0.109L56.426,39.703L56.426,39.703z M49.22,30.541c0.505,0.418,1.561,1.297,1.561,2.966 c0,1.627-0.924,2.396-1.846,3.121c-0.286,0.284-0.616,0.593-0.616,1.076s0.33,0.747,0.571,0.945l0.791,0.614 c0.968,0.813,1.846,1.561,1.846,3.076c0,2.065-1.999,4.153-5.779,4.153c-3.186,0-4.724-1.516-4.724-3.142 c0-0.793,0.396-1.912,1.693-2.682c1.361-0.835,3.207-0.944,4.195-1.011c-0.308-0.396-0.658-0.812-0.658-1.493 c0-0.374,0.109-0.595,0.22-0.857c-0.243,0.021-0.483,0.044-0.703,0.044c-2.329,0-3.647-1.736-3.647-3.449 c0-1.011,0.461-2.131,1.406-2.944c1.253-1.032,2.746-1.208,3.933-1.208h4.525l-1.405,0.79H49.22L49.22,30.541z M47.659,40.296 c-0.176-0.021-0.285-0.021-0.504-0.021c-0.198,0-1.385,0.043-2.309,0.352c-0.482,0.176-1.89,0.702-1.89,2.263 c0,1.56,1.517,2.68,3.867,2.68c2.11,0,3.23-1.01,3.23-2.372C50.055,42.076,49.33,41.482,47.659,40.296L47.659,40.296z M48.297,36.122c0.506-0.506,0.549-1.208,0.549-1.604c0-1.581-0.944-4.043-2.768-4.043c-0.572,0-1.187,0.287-1.538,0.726 c-0.374,0.462-0.483,1.055-0.483,1.626c0,1.472,0.856,3.911,2.746,3.911C47.352,36.737,47.944,36.474,48.297,36.122L48.297,36.122z M35.598,39.989c-3.494,0-5.361-2.725-5.361-5.185c0-2.879,2.351-5.341,5.69-5.341 c3.229,0,5.251,2.527,5.251,5.187C41.179,37.243,39.179,39.989,35.598,39.989L35.598,39.989z M38.344,38.209 c0.527-0.703,0.659-1.581,0.659-2.438c0-1.934-0.923-5.625-3.647-5.625c-0.725,0-1.45,0.286-1.977,0.747 c-0.856,0.77-1.011,1.736-1.011,2.681c0,2.176,1.077,5.757,3.735,5.757C36.959,39.33,37.838,38.913,38.344,38.209L38.344,38.209z M23.909,39.989c-3.494,0-5.361-2.725-5.361-5.185 c0-2.879,2.351-5.341,5.691-5.341c3.229,0,5.251,2.527,5.251,5.187C29.489,37.243,27.49,39.989,23.909,39.989L23.909,39.989z M26.655,38.209c0.528-0.703,0.659-1.581,0.659-2.438c0-1.934-0.922-5.625-3.646-5.625c-0.726,0-1.451,0.286-1.979,0.747 c-0.856,0.77-1.01,1.736-1.01,2.681c0,2.176,1.077,5.757,3.735,5.757C25.271,39.33,26.149,38.913,26.655,38.209L26.655,38.209z M17.15,39.223l-2.945,0.679c-1.195,0.187-2.266,0.351-3.399,0.351 c-5.685,0-7.848-4.182-7.848-7.457c0-3.995,3.069-7.703,8.322-7.703c1.113,0,2.184,0.165,3.152,0.433 c1.544,0.433,2.266,0.968,2.719,1.277l-1.71,1.627l-0.72,0.165l0.515-0.824c-0.7-0.68-1.978-1.937-4.408-1.937 c-3.255,0-5.706,2.472-5.706,6.077c0,3.872,2.801,7.518,7.292,7.518c1.318,0,1.998-0.268,2.616-0.515v-3.315l-3.111,0.164 l1.648-0.886h4.367l-0.535,0.516c-0.145,0.122-0.165,0.164-0.207,0.328c-0.021,0.187-0.041,0.783-0.041,0.989V39.223L17.15,39.223z "/>
</g>
</svg>
