<?xml version="1.0" encoding="utf-8"?>
<!-- Generator: Adobe Illustrator 16.0.4, SVG Export Plug-In . SVG Version: 6.00 Build 0)  -->
<!DOCTYPE svg PUBLIC "-//W3C//DTD SVG 1.1//EN" "http://www.w3.org/Graphics/SVG/1.1/DTD/svg11.dtd">
<svg version="1.1" id="Layer_1" xmlns="http://www.w3.org/2000/svg" xmlns:xlink="http://www.w3.org/1999/xlink" x="0px" y="0px"
	 width="72px" height="72px" viewBox="0 0 72 72" enable-background="new 0 0 72 72" xml:space="preserve">
<g>
	<path fill="#7E8084" d="M31.332,60.63h-2.615l-1.632-2.615l-1.614,2.615h-2.558l2.776-4.281l-2.61-4.086h2.507l1.511,2.586
		l1.453-2.586h2.582l-2.651,4.264L31.332,60.63z"/>
	<path fill="#7E8084" d="M35.916,60.63l-1.711-6.027h-0.051c0.08,1.026,0.121,1.825,0.121,2.394v3.634h-2.003v-8.367h3.01
		l1.746,5.939h0.047l1.711-5.939h3.017v8.367h-2.078v-3.668c0-0.192,0.003-0.404,0.009-0.636c0.005-0.232,0.032-0.804,0.078-1.712
		h-0.053l-1.688,6.016H35.916z"/>
	<path fill="#7E8084" d="M43.604,60.63v-8.367h2.26v6.541h3.223v1.826H43.604z"/>
</g>
<g>
	<path fill="#7E8084" d="M12.364,33.496v-6.188l13.908-6.961v6.188l-9.151,3.867l9.151,3.832v6.223L12.364,33.496z"/>
	<path fill="#7E8084" d="M39.848,14.723h4.311L31.76,47.277h-4.31L39.848,14.723z"/>
	<path fill="#7E8084" d="M45.729,34.27l9.15-3.832l-9.15-3.867v-6.223l13.908,6.961v6.188l-13.908,6.961V34.27z"/>
</g>
</svg>
