<?xml version="1.0" encoding="utf-8"?>
<!-- Generator: Adobe Illustrator 16.0.4, SVG Export Plug-In . SVG Version: 6.00 Build 0)  -->
<!DOCTYPE svg PUBLIC "-//W3C//DTD SVG 1.1//EN" "http://www.w3.org/Graphics/SVG/1.1/DTD/svg11.dtd">
<svg version="1.1" id="Layer_1" xmlns="http://www.w3.org/2000/svg" xmlns:xlink="http://www.w3.org/1999/xlink" x="0px" y="0px"
	 width="72px" height="72px" viewBox="0 0 72 72" enable-background="new 0 0 72 72" xml:space="preserve">
<path fill="#7E8084" d="M16.585,17.626v36.747c0,1.367,1.109,2.475,2.475,2.475h0.368V15.152H19.06
	C17.695,15.152,16.585,16.261,16.585,17.626z M21.001,56.848h31.685V15.152H21.001V56.848z M26.318,42.656
	c0.355-1.032,1.535-1.18,2.52-1.595c1.08-0.455,2.278-0.985,3.355-1.428c0.308-0.084,0.615-0.167,0.923-0.25
	c0.369-0.254,0.729-1.094,0.927-1.514l0.437-0.105c-0.1-0.551-0.442-0.594-0.584-0.984c-0.054-0.588-0.112-1.176-0.166-1.762
	c0,0.026-0.404-0.074-0.456-0.107c-0.57-0.357-0.583-1.81-0.638-2.413c-0.025-0.275,0.359-0.501,0.253-1.006
	c-0.625-2.962,0.27-4.348,1.687-4.808c0.98-0.397,2.814-1.134,4.526-0.083l0.423,0.394l0.689,0.119
	c0.343,0.199,0.563,0.857,0.563,0.857c0.18,0.729,0.199,0.79,0.183,1.537c-0.006,0.289-0.173,1.622-0.128,2.032
	c0.038,0.337,0.122,0.364,0.253,0.641c0.234,0.484,0.154,1.151,0.067,1.64c-0.051,0.268-0.153,0.646-0.308,0.863
	c-0.173,0.24-0.52,0.244-0.67,0.522c-0.221,0.403-0.096,0.97-0.233,1.405c-0.157,0.496-0.559,0.529-0.59,1.175
	c0.198,0.028,0.394,0.058,0.59,0.083c0.195,0.42,0.554,1.26,0.923,1.514c0.308,0.083,0.615,0.166,0.923,0.25
	c1.08,0.442,2.279,0.973,3.359,1.428c0.983,0.415,2.163,0.562,2.52,1.595c0,0.702,0.063,2.355,0.048,3.275H26.271
	C26.251,45.012,26.318,43.358,26.318,42.656z M53.997,15.152v9.552h2.332v-9.552H53.997z M53.997,36.769h2.332v-9.552h-2.332V36.769
	z M53.997,48.829h2.332v-9.551h-2.332V48.829z"/>
</svg>
