<?xml version="1.0" encoding="utf-8"?>
<!-- Generator: Adobe Illustrator 16.0.4, SVG Export Plug-In . SVG Version: 6.00 Build 0)  -->
<!DOCTYPE svg PUBLIC "-//W3C//DTD SVG 1.1//EN" "http://www.w3.org/Graphics/SVG/1.1/DTD/svg11.dtd">
<svg version="1.1" id="Layer_1" xmlns="http://www.w3.org/2000/svg" xmlns:xlink="http://www.w3.org/1999/xlink" x="0px" y="0px"
	 width="72px" height="72px" viewBox="0 0 72 72" enable-background="new 0 0 72 72" xml:space="preserve">
<g>
	<path fill="#7E8084" d="M27.145,41.854l-1.46-5.141h-0.044c0.068,0.875,0.103,1.555,0.103,2.041v3.1h-1.709v-7.138h2.568
		l1.489,5.068h0.039l1.46-5.068h2.573v7.138h-1.772v-3.129c0-0.164,0.003-0.344,0.008-0.543c0.005-0.197,0.026-0.686,0.065-1.459
		H30.42l-1.44,5.131H27.145z"/>
	<path fill="#7E8084" d="M33.501,41.854v-7.138h1.938v7.138H33.501z"/>
	<path fill="#7E8084" d="M41.65,39.686c0,0.443-0.111,0.836-0.336,1.18s-0.549,0.609-0.973,0.801s-0.92,0.285-1.488,0.285
		c-0.477,0-0.875-0.033-1.197-0.1S37,41.668,36.65,41.502v-1.719c0.369,0.188,0.752,0.336,1.148,0.441s0.762,0.158,1.094,0.158
		c0.287,0,0.496-0.051,0.629-0.148c0.135-0.1,0.201-0.229,0.201-0.385c0-0.098-0.027-0.182-0.08-0.256
		c-0.055-0.072-0.141-0.146-0.26-0.223c-0.119-0.074-0.436-0.229-0.949-0.459c-0.467-0.211-0.814-0.416-1.047-0.615
		c-0.234-0.197-0.406-0.426-0.52-0.684c-0.111-0.256-0.168-0.561-0.168-0.912c0-0.658,0.24-1.17,0.719-1.539
		c0.479-0.367,1.137-0.551,1.973-0.551c0.738,0,1.492,0.17,2.26,0.512l-0.59,1.49c-0.666-0.304-1.244-0.457-1.729-0.457
		c-0.25,0-0.434,0.043-0.547,0.131s-0.172,0.197-0.172,0.328c0,0.141,0.072,0.266,0.219,0.375c0.146,0.111,0.537,0.312,1.18,0.605
		c0.613,0.277,1.043,0.574,1.281,0.893C41.531,38.805,41.65,39.205,41.65,39.686z"/>
	<path fill="#7E8084" d="M45.732,36.196c-0.459,0-0.816,0.188-1.074,0.562c-0.256,0.377-0.385,0.896-0.385,1.557
		c0,1.373,0.521,2.061,1.566,2.061c0.316,0,0.623-0.045,0.918-0.133c0.297-0.088,0.594-0.193,0.895-0.316v1.631
		c-0.596,0.264-1.27,0.395-2.021,0.395c-1.076,0-1.902-0.312-2.479-0.938c-0.574-0.627-0.861-1.527-0.861-2.709
		c0-0.738,0.141-1.389,0.418-1.949c0.277-0.561,0.68-0.99,1.201-1.291s1.137-0.451,1.842-0.451c0.771,0,1.512,0.167,2.213,0.502
		l-0.592,1.519c-0.264-0.123-0.525-0.228-0.791-0.311C46.318,36.238,46.035,36.196,45.732,36.196z"/>
</g>
<polygon fill="#7E8084" points="50.872,24.731 50.872,55.701 21.128,55.701 21.128,19.215 45.356,19.215 42.809,16.667 
	21.128,16.667 21.128,16.667 18.58,16.667 18.58,16.667 18.58,19.215 18.58,55.701 18.58,58.248 21.128,58.248 50.872,58.248 
	53.42,58.248 53.42,55.701 53.42,27.279 "/>
<polygon fill="#7E8084" points="42.809,16.667 53.42,27.279 42.809,27.279 "/>
</svg>
