<?xml version="1.0" encoding="utf-8"?>
<!-- Generator: Adobe Illustrator 16.0.4, SVG Export Plug-In . SVG Version: 6.00 Build 0)  -->
<!DOCTYPE svg PUBLIC "-//W3C//DTD SVG 1.1//EN" "http://www.w3.org/Graphics/SVG/1.1/DTD/svg11.dtd">
<svg version="1.1" id="Layer_1" xmlns="http://www.w3.org/2000/svg" xmlns:xlink="http://www.w3.org/1999/xlink" x="0px" y="0px"
	 width="72px" height="72px" viewBox="0 0 72 72" enable-background="new 0 0 72 72" xml:space="preserve">
<g>
	<path fill="#7E8084" d="M47.98,47.549c-3.028-3.151-7.274-5.125-11.983-5.125c-4.706,0-8.952,1.973-11.984,5.125l3.809,3.803
		c2.05-2.176,4.95-3.54,8.175-3.54c3.23,0,6.129,1.363,8.179,3.54L47.98,47.549z"/>
	<path fill="#7E8084" d="M31.978,55.507l4.023,4.023l4.019-4.023c-0.986-1.115-2.416-1.837-4.022-1.837
		C34.395,53.67,32.966,54.392,31.978,55.507z"/>
	<path fill="#7E8084" d="M64.256,31.274c-0.08-0.078-0.154-0.161-0.231-0.24c-15.477-15.477-40.57-15.477-56.047,0
		c-0.083,0.079-0.154,0.162-0.232,0.24l3.904,3.907C17.84,28.87,26.46,24.945,36.002,24.945c9.537,0,18.157,3.925,24.348,10.236
		L64.256,31.274z"/>
	<path fill="#7E8084" d="M56.207,39.324c-0.078-0.083-0.154-0.166-0.231-0.244c-5.335-5.337-12.431-8.274-19.975-8.274
		c-7.546,0-14.642,2.937-19.978,8.274c-0.08,0.078-0.154,0.161-0.233,0.244l4.074,4.071c4.085-4.213,9.805-6.831,16.134-6.831
		c6.333,0,12.047,2.618,16.138,6.831L56.207,39.324z"/>
</g>
</svg>
