<?xml version="1.0" encoding="utf-8"?>
<!-- Generator: Adobe Illustrator 16.0.4, SVG Export Plug-In . SVG Version: 6.00 Build 0)  -->
<!DOCTYPE svg PUBLIC "-//W3C//DTD SVG 1.1//EN" "http://www.w3.org/Graphics/SVG/1.1/DTD/svg11.dtd">
<svg version="1.1" id="Layer_1" xmlns="http://www.w3.org/2000/svg" xmlns:xlink="http://www.w3.org/1999/xlink" x="0px" y="0px"
	 width="72px" height="72px" viewBox="0 0 72 72" enable-background="new 0 0 72 72" xml:space="preserve">
<g>
	<path fill-rule="evenodd" clip-rule="evenodd" d="M60.686,48.766c-1.346,2.986-1.996,4.322-3.731,6.966
		c-2.426,3.69-5.841,8.28-10.075,8.321c-3.758,0.033-4.728-2.45-9.831-2.42c-5.106,0.03-6.172,2.46-9.935,2.426
		c-4.233-0.036-7.47-4.184-9.896-7.871c-6.778-10.32-7.487-22.424-3.307-28.86c2.973-4.575,7.658-7.25,12.065-7.25
		c4.488,0,7.31,2.459,11.02,2.459c3.597,0,5.791-2.464,10.978-2.464c3.919,0,8.076,2.136,11.039,5.826
		C49.308,31.212,50.885,45.062,60.686,48.766L60.686,48.766z"/>
	<path fill-rule="evenodd" clip-rule="evenodd" d="M44.04,15.951c1.883-2.419,3.315-5.834,2.795-9.326
		c-3.08,0.213-6.68,2.171-8.783,4.724c-1.91,2.317-3.485,5.754-2.871,9.096C38.545,20.548,42.021,18.542,44.04,15.951L44.04,15.951z
		"/>
</g>
</svg>
