<?xml version="1.0" encoding="utf-8"?>
<!-- Generator: Adobe Illustrator 16.0.4, SVG Export Plug-In . SVG Version: 6.00 Build 0)  -->
<!DOCTYPE svg PUBLIC "-//W3C//DTD SVG 1.1//EN" "http://www.w3.org/Graphics/SVG/1.1/DTD/svg11.dtd">
<svg version="1.1" id="Layer_1" xmlns="http://www.w3.org/2000/svg" xmlns:xlink="http://www.w3.org/1999/xlink" x="0px" y="0px"
	 width="72px" height="72px" viewBox="0 0 72 72" enable-background="new 0 0 72 72" xml:space="preserve">
<path fill="#FFFFFF" d="M62.313,53.874l-0.324-0.327l0,0L48.944,40.501c1.81-3.125,2.862-6.742,2.887-10.614
	c0.078-11.842-9.467-21.506-21.309-21.58c-0.047,0-0.093,0-0.139,0c-11.778,0-21.365,9.516-21.439,21.308
	c-0.079,11.842,9.461,21.502,21.303,21.583c0.047,0,0.097,0,0.145,0c3.935,0,7.619-1.067,10.794-2.921l13.039,13.036l0,0
	l0.325,0.323c0.988,0.987,2.584,0.987,3.571,0l4.19-4.19C63.302,56.461,63.302,54.863,62.313,53.874z M30.281,45.727
	c-8.807-0.054-15.925-7.271-15.869-16.077c0.055-8.752,7.22-15.877,15.972-15.877h0.102c4.269,0.027,8.27,1.717,11.271,4.751
	c2.997,3.04,4.635,7.06,4.608,11.329c-0.028,4.249-1.708,8.24-4.72,11.233c-3.012,2.992-7.012,4.64-11.253,4.64L30.281,45.727
	L30.281,45.727z"/>
</svg>
