<?xml version="1.0" encoding="utf-8"?>
<!-- Generator: Adobe Illustrator 16.0.4, SVG Export Plug-In . SVG Version: 6.00 Build 0)  -->
<!DOCTYPE svg PUBLIC "-//W3C//DTD SVG 1.1//EN" "http://www.w3.org/Graphics/SVG/1.1/DTD/svg11.dtd">
<svg version="1.1" id="Layer_1" xmlns="http://www.w3.org/2000/svg" xmlns:xlink="http://www.w3.org/1999/xlink" x="0px" y="0px"
	 width="72px" height="72px" viewBox="0 0 72 72" enable-background="new 0 0 72 72" xml:space="preserve">
<g>
	<circle cx="35.846" cy="35.593" r="11.328"/>
	<path d="M63.894,23.019H41.979c4.655,2.275,7.87,7.043,7.87,12.575c0,4.067-1.745,7.714-4.514,10.273
		c-3.724,6.452-9.831,17.026-11.549,19.997c20.414,0.785,28.706-15.188,28.706-15.188C69.546,37.263,65.449,26.295,63.894,23.019z"
		/>
	<path d="M35.846,49.596c-6.878,0-12.583-4.959-13.768-11.499c-3.735-6.47-9.709-16.821-11.4-19.753
		C-0.211,35.627,9.476,50.798,9.476,50.798c8.091,12.821,19.649,14.753,23.257,15.043l10.539-18.393
		C41.118,48.803,38.579,49.596,35.846,49.596z"/>
	<path d="M21.839,35.593c0-7.735,6.271-14.003,14.006-14.003c1.226,0,2.408,0.173,3.539,0.468c7.312,0,20.465,0,24.043,0
		C53.898,3.99,35.919,4.798,35.919,4.798c-15.13,0.601-22.58,9.621-24.646,12.615l10.574,18.262
		C21.845,35.646,21.839,35.618,21.839,35.593z"/>
</g>
</svg>
