<?xml version="1.0" encoding="utf-8"?>
<!-- Generator: Adobe Illustrator 16.0.4, SVG Export Plug-In . SVG Version: 6.00 Build 0)  -->
<!DOCTYPE svg PUBLIC "-//W3C//DTD SVG 1.1//EN" "http://www.w3.org/Graphics/SVG/1.1/DTD/svg11.dtd">
<svg version="1.1" id="Layer_1" xmlns="http://www.w3.org/2000/svg" xmlns:xlink="http://www.w3.org/1999/xlink" x="0px" y="0px"
	 width="72px" height="72px" viewBox="0 0 72 72" enable-background="new 0 0 72 72" xml:space="preserve">
<ellipse fill="#7E8084" cx="36" cy="21.9" rx="17.42" ry="4.585"/>
<path fill="#7E8084" d="M36,28.314c-7.507,0-14.038-1.43-17.42-3.539v7.811c0,2.758,7.799,4.995,17.42,4.995
	c9.621,0,17.42-2.237,17.42-4.995v-7.811C50.038,26.884,43.507,28.314,36,28.314z"/>
<path fill="#7E8084" d="M36,49.98c-7.507,0-14.038-1.43-17.42-3.539v7.811c0,2.758,7.799,4.996,17.42,4.996
	c9.621,0,17.42-2.238,17.42-4.996v-7.811C50.038,48.551,43.507,49.98,36,49.98z"/>
<path fill="#7E8084" d="M36,39.147c-7.507,0-14.038-1.43-17.42-3.539v7.811c0,2.758,7.799,4.996,17.42,4.996
	c9.621,0,17.42-2.238,17.42-4.996v-7.811C50.038,37.718,43.507,39.147,36,39.147z"/>
</svg>
