<?xml version="1.0" encoding="utf-8"?>
<!-- Generator: Adobe Illustrator 16.0.4, SVG Export Plug-In . SVG Version: 6.00 Build 0)  -->
<!DOCTYPE svg PUBLIC "-//W3C//DTD SVG 1.1//EN" "http://www.w3.org/Graphics/SVG/1.1/DTD/svg11.dtd">
<svg version="1.1" id="Layer_1" xmlns="http://www.w3.org/2000/svg" xmlns:xlink="http://www.w3.org/1999/xlink" x="0px" y="0px"
	 width="72px" height="72px" viewBox="0 0 72 72" enable-background="new 0 0 72 72" xml:space="preserve">
<path fill="#FFFFFF" d="M53.693,33.251h-2.885h-7.967H42.23H25.212v-9.614c0-2.767,1.046-5.212,2.674-6.953
	c1.644-1.742,3.775-2.742,6.144-2.746c2.365,0.004,4.5,1.004,6.136,2.746c1.631,1.741,2.678,4.186,2.678,6.953v0.157h7.967v-0.157
	c0-4.792-1.817-9.186-4.822-12.398c-2.991-3.212-7.254-5.274-11.957-5.27c-4.703-0.004-8.97,2.058-11.961,5.27
	c-3.004,3.212-4.822,7.605-4.822,12.398v9.614H14.36c-1.199,0-2.169,0.97-2.169,2.167v25.413c0,1.198,0.97,2.17,2.169,2.17h39.333
	c1.199,0,2.17-0.972,2.17-2.17V35.418C55.863,34.222,54.895,33.251,53.693,33.251z"/>
</svg>
