<?xml version="1.0" encoding="utf-8"?>
<!-- Generator: Adobe Illustrator 16.0.4, SVG Export Plug-In . SVG Version: 6.00 Build 0)  -->
<!DOCTYPE svg PUBLIC "-//W3C//DTD SVG 1.1//EN" "http://www.w3.org/Graphics/SVG/1.1/DTD/svg11.dtd">
<svg version="1.1" id="Layer_1" xmlns="http://www.w3.org/2000/svg" xmlns:xlink="http://www.w3.org/1999/xlink" x="0px" y="0px"
	 width="72px" height="72px" viewBox="0 0 72 72" enable-background="new 0 0 72 72" xml:space="preserve">
<path d="M32.374,36.294c-3.303-2.022-6.463-3.731-10.427-4.042c-4.845-0.381-9.677,1.075-14.114,2.885L1.456,57.448
	c8.547-3.268,16.43-3.64,24.34,1.372l6.58-22.524C32.376,36.296,32.375,36.294,32.374,36.294 M23.849,27.646
	c4.025,0.492,7.222,2.195,9.829,3.836c2.157-7.446,4.293-14.896,6.468-22.337c-3.105-1.975-6.28-3.689-10-4.06
	C25.25,4.5,20.149,5.97,15.671,7.801c-2.183,7.463-4.32,14.94-6.479,22.408C13.816,28.398,18.846,27.029,23.849,27.646
	 M49.947,43.403c-5.996,0-10.077-2.113-13.574-4.439c-0.017,0.021-0.044,0.036-0.064,0.052l-6.478,22.419
	c8.211,5.446,17.51,5.395,26.442,1.624l6.28-21.916l-0.058,0.015C57.762,42.741,53.61,43.403,49.947,43.403 M70.529,13.439
	c-0.017-0.011-0.03-0.023-0.045-0.04c-9.021,3.663-17.907,4.045-26.28-1.516c-0.384,1.318-0.735,2.32-0.958,3.095
	c-0.741,2.558-1.481,5.121-2.22,7.678c-1.137,3.931-2.271,7.864-3.407,11.796c8.187,5.29,17.476,5.573,26.349,1.587l6.576-22.586
	L70.529,13.439"/>
</svg>
