<?xml version="1.0" encoding="utf-8"?>
<!-- Generator: Adobe Illustrator 16.0.4, SVG Export Plug-In . SVG Version: 6.00 Build 0)  -->
<!DOCTYPE svg PUBLIC "-//W3C//DTD SVG 1.1//EN" "http://www.w3.org/Graphics/SVG/1.1/DTD/svg11.dtd">
<svg version="1.1" id="Layer_1" xmlns="http://www.w3.org/2000/svg" xmlns:xlink="http://www.w3.org/1999/xlink" x="0px" y="0px"
	 width="144px" height="144px" viewBox="0 0 144 144" enable-background="new 0 0 144 144" xml:space="preserve">
<g>
	<path fill="#474B4F" d="M40.355,38.918c2.664-2.617,5.644-4.911,8.877-6.823l-2.788-4.829c-3.658,2.155-7.028,4.745-10.036,7.705
		L40.355,38.918z"/>
	<path fill="#474B4F" d="M32.954,48.373c1.912-3.233,4.206-6.212,6.822-8.876l-3.946-3.946c-2.96,3.007-5.55,6.376-7.705,10.034
		L32.954,48.373z"/>
	<path fill="#474B4F" d="M49.94,31.688c3.227-1.832,6.692-3.283,10.341-4.297l-1.44-5.377c-4.127,1.139-8.045,2.776-11.688,4.846
		L49.94,31.688z"/>
	<path fill="#474B4F" d="M28.247,59.423c1.015-3.649,2.466-7.115,4.298-10.341l-4.828-2.788c-2.07,3.643-3.707,7.561-4.846,11.688
		L28.247,59.423z"/>
	<path fill="#474B4F" d="M26.574,71.319c0.034-3.831,0.53-7.553,1.449-11.108l-5.376-1.44c-1.039,4.014-1.599,8.218-1.632,12.548
		H26.574z"/>
	<path fill="#474B4F" d="M72.995,25.717c3.83,0.034,7.552,0.53,11.105,1.449l1.441-5.376c-4.014-1.039-8.218-1.598-12.547-1.632
		V25.717z"/>
	<path fill="#474B4F" d="M105.395,39.497c2.617,2.664,4.911,5.644,6.823,8.876l4.828-2.787c-2.155-3.658-4.745-7.028-7.705-10.035
		L105.395,39.497z"/>
	<path fill="#474B4F" d="M95.939,32.096c3.232,1.913,6.213,4.206,8.876,6.823l3.946-3.946c-3.007-2.96-6.376-5.55-10.034-7.706
		L95.939,32.096z"/>
	<path fill="#474B4F" d="M84.889,27.391c3.649,1.014,7.115,2.465,10.342,4.297l2.787-4.828c-3.643-2.069-7.561-3.707-11.688-4.846
		L84.889,27.391z"/>
	<path fill="#474B4F" d="M117.454,46.296l-4.828,2.787c1.831,3.227,3.283,6.692,4.298,10.341l5.375-1.44
		C121.161,53.856,119.523,49.939,117.454,46.296z"/>
	<path fill="#474B4F" d="M28.023,83.244c-0.919-3.554-1.416-7.277-1.449-11.107h-5.56c0.034,4.33,0.594,8.535,1.632,12.547
		L28.023,83.244z"/>
	<path fill="#474B4F" d="M61.069,27.166c3.556-0.919,7.277-1.415,11.107-1.449v-5.56c-4.331,0.034-8.534,0.593-12.548,1.632
		L61.069,27.166z"/>
	<path fill="#474B4F" d="M95.231,111.768c-3.227,1.832-6.692,3.283-10.341,4.297l1.44,5.378c4.127-1.14,8.044-2.776,11.688-4.847
		L95.231,111.768z"/>
	<path fill="#474B4F" d="M112.218,95.081c-1.912,3.234-4.206,6.213-6.823,8.878l3.946,3.945c2.96-3.007,5.55-6.377,7.705-10.035
		L112.218,95.081z"/>
	<path fill="#474B4F" d="M104.816,104.537c-2.664,2.617-5.645,4.91-8.877,6.822l2.788,4.828c3.658-2.155,7.027-4.745,10.034-7.704
		L104.816,104.537z"/>
	<path fill="#474B4F" d="M116.924,84.032c-1.015,3.648-2.466,7.114-4.298,10.341l4.828,2.786c2.069-3.644,3.707-7.561,4.845-11.687
		L116.924,84.032z"/>
	<path fill="#474B4F" d="M118.597,72.137c-0.034,3.83-0.53,7.551-1.449,11.107l5.376,1.44c1.038-4.013,1.599-8.218,1.632-12.547
		H118.597z"/>
	<path fill="#474B4F" d="M117.147,60.211c0.919,3.555,1.415,7.277,1.449,11.107h5.559c-0.033-4.33-0.594-8.535-1.632-12.548
		L117.147,60.211z"/>
	<path fill="#474B4F" d="M72.177,117.738c-3.831-0.033-7.553-0.529-11.107-1.448l-1.441,5.376c4.014,1.038,8.218,1.6,12.549,1.633
		V117.738z"/>
	<path fill="#474B4F" d="M39.776,103.957c-2.617-2.663-4.911-5.644-6.823-8.876l-4.829,2.788c2.155,3.658,4.745,7.028,7.705,10.035
		L39.776,103.957z"/>
	<path fill="#474B4F" d="M49.23,111.359c-3.232-1.912-6.212-4.206-8.876-6.823l-3.946,3.947c3.007,2.959,6.376,5.549,10.034,7.706
		L49.23,111.359z"/>
	<path fill="#474B4F" d="M84.103,116.29c-3.556,0.919-7.277,1.415-11.107,1.448v5.561c4.33-0.035,8.534-0.595,12.548-1.633
		L84.103,116.29z"/>
	<path fill="#474B4F" d="M60.281,116.064c-3.649-1.014-7.115-2.465-10.341-4.297l-2.788,4.829c3.643,2.069,7.561,3.706,11.688,4.846
		L60.281,116.064z"/>
	<path fill="#474B4F" d="M32.545,94.373c-1.833-3.227-3.283-6.692-4.298-10.341l-5.376,1.44c1.139,4.126,2.776,8.045,4.846,11.687
		L32.545,94.373z"/>
	<path fill="#474B4F" d="M44.832,43.395c2.273-2.228,4.812-4.183,7.565-5.817l-2.756-4.774c-3.171,1.876-6.093,4.126-8.707,6.692
		L44.832,43.395z"/>
	<path fill="#474B4F" d="M38.436,51.538c1.634-2.753,3.589-5.292,5.817-7.565l-3.897-3.897c-2.567,2.613-4.817,5.536-6.693,8.707
		L38.436,51.538z"/>
	<path fill="#474B4F" d="M53.106,37.17c2.752-1.558,5.707-2.793,8.814-3.662l-1.427-5.327c-3.58,0.995-6.979,2.418-10.144,4.215
		L53.106,37.17z"/>
	<path fill="#474B4F" d="M32.908,71.319c0.034-3.264,0.455-6.437,1.234-9.469l-5.328-1.427c-0.901,3.487-1.388,7.138-1.421,10.896
		H32.908z"/>
	<path fill="#474B4F" d="M34.365,61.062c0.869-3.108,2.105-6.063,3.663-8.814l-4.773-2.756c-1.796,3.165-3.221,6.564-4.215,10.144
		L34.365,61.062z"/>
	<path fill="#474B4F" d="M62.709,33.285c3.031-0.779,6.203-1.201,9.467-1.233v-5.516c-3.757,0.034-7.408,0.52-10.895,1.421
		L62.709,33.285z"/>
	<path fill="#474B4F" d="M100.918,43.974c2.228,2.273,4.184,4.812,5.817,7.565l4.774-2.756c-1.877-3.171-4.127-6.094-6.694-8.707
		L100.918,43.974z"/>
	<path fill="#474B4F" d="M92.773,37.579c2.753,1.634,5.292,3.589,7.565,5.817l3.897-3.898c-2.612-2.566-5.535-4.816-8.706-6.692
		L92.773,37.579z"/>
	<path fill="#474B4F" d="M111.917,49.492l-4.773,2.756c1.558,2.752,2.794,5.707,3.662,8.815l5.327-1.428
		C115.138,56.057,113.714,52.657,111.917,49.492z"/>
	<path fill="#474B4F" d="M34.142,81.605c-0.779-3.033-1.2-6.205-1.234-9.468h-5.515c0.034,3.757,0.521,7.408,1.421,10.896
		L34.142,81.605z"/>
	<path fill="#474B4F" d="M72.995,32.052c3.263,0.033,6.435,0.455,9.466,1.234l1.429-5.329c-3.487-0.901-7.139-1.387-10.895-1.421
		V32.052z"/>
	<path fill="#474B4F" d="M83.25,33.508c3.108,0.869,6.062,2.105,8.814,3.663l2.757-4.774c-3.165-1.796-6.565-3.22-10.145-4.215
		L83.25,33.508z"/>
	<path fill="#474B4F" d="M44.252,99.482c-2.228-2.275-4.183-4.812-5.817-7.565l-4.773,2.757c1.876,3.17,4.126,6.093,6.693,8.706
		L44.252,99.482z"/>
	<path fill="#474B4F" d="M110.806,82.392c-0.868,3.11-2.104,6.062-3.662,8.815l4.774,2.757c1.796-3.166,3.22-6.564,4.215-10.145
		L110.806,82.392z"/>
	<path fill="#474B4F" d="M38.027,91.207c-1.557-2.751-2.794-5.705-3.662-8.813l-5.327,1.426c0.995,3.58,2.419,6.979,4.215,10.145
		L38.027,91.207z"/>
	<path fill="#474B4F" d="M106.735,91.917c-1.634,2.753-3.589,5.29-5.816,7.565l3.897,3.897c2.566-2.613,4.816-5.536,6.693-8.706
		L106.735,91.917z"/>
	<path fill="#474B4F" d="M112.263,72.137c-0.033,3.263-0.454,6.435-1.233,9.466l5.327,1.428c0.902-3.486,1.388-7.137,1.422-10.894
		H112.263z"/>
	<path fill="#474B4F" d="M111.029,61.851c0.779,3.032,1.2,6.204,1.233,9.468h5.516c-0.034-3.757-0.521-7.408-1.422-10.896
		L111.029,61.851z"/>
	<path fill="#474B4F" d="M100.34,100.062c-2.274,2.227-4.812,4.182-7.565,5.815l2.756,4.774c3.171-1.877,6.094-4.127,8.707-6.692
		L100.34,100.062z"/>
	<path fill="#474B4F" d="M61.92,109.947c-3.108-0.867-6.062-2.104-8.814-3.662l-2.756,4.773c3.165,1.797,6.565,3.222,10.144,4.216
		L61.92,109.947z"/>
	<path fill="#474B4F" d="M52.396,105.877c-2.753-1.634-5.292-3.589-7.565-5.815l-3.898,3.897c2.613,2.565,5.536,4.815,8.707,6.692
		L52.396,105.877z"/>
	<path fill="#474B4F" d="M82.462,110.17c-3.031,0.78-6.203,1.201-9.467,1.234v5.516c3.757-0.033,7.407-0.52,10.895-1.422
		L82.462,110.17z"/>
	<path fill="#474B4F" d="M92.065,106.285c-2.752,1.557-5.707,2.795-8.814,3.662l1.427,5.327c3.58-0.996,6.979-2.419,10.144-4.216
		L92.065,106.285z"/>
	<path fill="#474B4F" d="M72.177,111.404c-3.264-0.032-6.437-0.454-9.469-1.234l-1.428,5.328c3.488,0.902,7.139,1.389,10.896,1.422
		V111.404z"/>
	<path fill="#474B4F" d="M49.384,47.948c1.877-1.832,3.967-3.444,6.232-4.794l-2.81-4.867c-2.69,1.597-5.172,3.509-7.396,5.687
		L49.384,47.948z"/>
	<path fill="#474B4F" d="M44.012,54.757c1.35-2.265,2.963-4.355,4.794-6.231l-3.974-3.974c-2.178,2.223-4.09,4.705-5.688,7.396
		L44.012,54.757z"/>
	<path fill="#474B4F" d="M56.325,42.746c2.27-1.278,4.704-2.296,7.262-3.016l-1.455-5.431c-3.038,0.85-5.926,2.058-8.617,3.58
		L56.325,42.746z"/>
	<path fill="#474B4F" d="M40.587,62.729c0.721-2.558,1.738-4.992,3.016-7.263l-4.867-2.81c-1.522,2.691-2.73,5.579-3.581,8.618
		L40.587,62.729z"/>
	<path fill="#474B4F" d="M39.35,71.319c0.033-2.688,0.381-5.301,1.018-7.8l-5.434-1.456c-0.762,2.964-1.173,6.066-1.207,9.256H39.35
		z"/>
	<path fill="#474B4F" d="M89.555,43.154c2.265,1.351,4.355,2.962,6.231,4.794l3.974-3.974c-2.223-2.177-4.705-4.089-7.396-5.687
		L89.555,43.154z"/>
	<path fill="#474B4F" d="M64.377,39.51c2.5-0.637,5.112-0.984,7.8-1.018V32.87c-3.19,0.033-6.291,0.445-9.255,1.206L64.377,39.51z"
		/>
	<path fill="#474B4F" d="M106.435,52.658l-4.868,2.811c1.279,2.27,2.296,4.704,3.018,7.262l5.432-1.456
		C109.166,58.237,107.957,55.349,106.435,52.658z"/>
	<path fill="#474B4F" d="M96.364,48.527c1.832,1.877,3.444,3.967,4.794,6.232l4.868-2.811c-1.598-2.691-3.51-5.173-5.688-7.396
		L96.364,48.527z"/>
	<path fill="#474B4F" d="M81.583,39.729c2.559,0.721,4.992,1.738,7.263,3.017l2.81-4.867c-2.69-1.522-5.578-2.731-8.618-3.581
		L81.583,39.729z"/>
	<path fill="#474B4F" d="M40.367,79.937c-0.638-2.499-0.985-5.111-1.018-7.799h-5.624c0.034,3.19,0.445,6.292,1.207,9.255
		L40.367,79.937z"/>
	<path fill="#474B4F" d="M72.995,38.492c2.687,0.033,5.3,0.38,7.799,1.018l1.455-5.433c-2.963-0.761-6.063-1.173-9.254-1.207V38.492
		z"/>
	<path fill="#474B4F" d="M104.584,80.725c-0.722,2.56-1.738,4.993-3.018,7.263l4.868,2.811c1.522-2.69,2.731-5.579,3.581-8.617
		L104.584,80.725z"/>
	<path fill="#474B4F" d="M101.159,88.697c-1.351,2.264-2.963,4.355-4.794,6.232l3.975,3.974c2.177-2.224,4.089-4.705,5.687-7.396
		L101.159,88.697z"/>
	<path fill="#474B4F" d="M88.846,100.709c-2.27,1.278-4.703,2.297-7.262,3.017l1.455,5.431c3.038-0.849,5.927-2.058,8.617-3.579
		L88.846,100.709z"/>
	<path fill="#474B4F" d="M43.603,87.987c-1.279-2.27-2.295-4.703-3.017-7.261l-5.431,1.454c0.85,3.038,2.058,5.927,3.581,8.617
		L43.603,87.987z"/>
	<path fill="#474B4F" d="M104.803,63.52c0.638,2.499,0.984,5.112,1.018,7.799h5.624c-0.032-3.19-0.445-6.292-1.207-9.256
		L104.803,63.52z"/>
	<path fill="#474B4F" d="M105.82,72.137c-0.033,2.688-0.38,5.3-1.018,7.799l5.435,1.456c0.762-2.964,1.175-6.065,1.207-9.255H105.82
		z"/>
	<path fill="#474B4F" d="M95.786,95.508c-1.876,1.831-3.966,3.443-6.231,4.793l2.811,4.868c2.69-1.599,5.173-3.511,7.396-5.687
		L95.786,95.508z"/>
	<path fill="#474B4F" d="M55.615,100.301c-2.265-1.35-4.355-2.962-6.231-4.793l-3.975,3.975c2.223,2.176,4.704,4.088,7.396,5.687
		L55.615,100.301z"/>
	<path fill="#474B4F" d="M48.805,94.93c-1.832-1.877-3.443-3.967-4.793-6.232l-4.867,2.811c1.597,2.69,3.509,5.172,5.687,7.396
		L48.805,94.93z"/>
	<path fill="#474B4F" d="M63.587,103.727c-2.559-0.721-4.993-1.737-7.263-3.017l-2.81,4.867c2.69,1.521,5.579,2.73,8.618,3.581
		L63.587,103.727z"/>
	<path fill="#474B4F" d="M80.795,103.946c-2.5,0.638-5.112,0.984-7.8,1.017v5.623c3.19-0.032,6.292-0.444,9.255-1.206
		L80.795,103.946z"/>
	<path fill="#474B4F" d="M72.177,104.963c-2.688-0.032-5.301-0.379-7.8-1.017l-1.456,5.434c2.964,0.762,6.066,1.174,9.256,1.206
		V104.963z"/>
	<path fill="#474B4F" d="M59.492,48.231c1.795-1.005,3.718-1.807,5.735-2.381L63.8,40.52c-2.489,0.702-4.857,1.691-7.065,2.935
		L59.492,48.231z"/>
	<path fill="#474B4F" d="M53.863,52.426c1.486-1.442,3.135-2.716,4.92-3.788l-2.758-4.776c-2.203,1.314-4.236,2.883-6.062,4.664
		L53.863,52.426z"/>
	<path fill="#474B4F" d="M45.686,71.319c0.032-2.121,0.306-4.184,0.804-6.16l-5.332-1.428c-0.619,2.432-0.957,4.974-0.989,7.588
		H45.686z"/>
	<path fill="#474B4F" d="M49.497,57.924c1.071-1.786,2.345-3.434,3.787-4.92l-3.9-3.9c-1.781,1.826-3.35,3.859-4.664,6.062
		L49.497,57.924z"/>
	<path fill="#474B4F" d="M46.706,64.37c0.575-2.019,1.377-3.941,2.382-5.736l-4.776-2.758c-1.243,2.209-2.232,4.577-2.934,7.065
		L46.706,64.37z"/>
	<path fill="#474B4F" d="M79.942,45.85c2.019,0.575,3.94,1.377,5.736,2.381l2.758-4.776c-2.209-1.244-4.577-2.233-7.065-2.935
		L79.942,45.85z"/>
	<path fill="#474B4F" d="M100.858,55.877l-4.776,2.757c1.005,1.795,1.807,3.717,2.382,5.735l5.328-1.428
		C103.091,60.454,102.102,58.086,100.858,55.877z"/>
	<path fill="#474B4F" d="M91.887,53.005c1.441,1.486,2.716,3.135,3.787,4.919l4.776-2.757c-1.314-2.203-2.883-4.236-4.664-6.062
		L91.887,53.005z"/>
	<path fill="#474B4F" d="M86.388,48.64c1.785,1.071,3.434,2.345,4.92,3.787l3.9-3.9c-1.827-1.781-3.859-3.35-6.062-4.664
		L86.388,48.64z"/>
	<path fill="#474B4F" d="M46.49,78.296c-0.498-1.976-0.772-4.038-0.804-6.159h-5.517c0.033,2.615,0.371,5.157,0.989,7.588
		L46.49,78.296z"/>
	<path fill="#474B4F" d="M66.018,45.633c1.976-0.497,4.038-0.771,6.159-0.804v-5.518c-2.614,0.032-5.156,0.371-7.588,0.99
		L66.018,45.633z"/>
	<path fill="#474B4F" d="M72.995,44.829c2.12,0.032,4.183,0.307,6.157,0.804l1.43-5.333c-2.432-0.619-4.973-0.957-7.587-0.99V44.829
		z"/>
	<path fill="#474B4F" d="M95.674,85.53c-1.071,1.786-2.346,3.435-3.787,4.919l3.899,3.901c1.781-1.827,3.35-3.859,4.664-6.062
		L95.674,85.53z"/>
	<path fill="#474B4F" d="M98.464,79.086c-0.575,2.018-1.377,3.939-2.382,5.734l4.776,2.758c1.243-2.208,2.232-4.575,2.935-7.064
		L98.464,79.086z"/>
	<path fill="#474B4F" d="M91.308,91.028c-1.485,1.442-3.134,2.716-4.919,3.787l2.758,4.777c2.203-1.314,4.235-2.883,6.062-4.663
		L91.308,91.028z"/>
	<path fill="#474B4F" d="M99.484,72.137c-0.032,2.121-0.306,4.183-0.804,6.159l5.331,1.428c0.619-2.432,0.957-4.972,0.99-7.586
		H99.484z"/>
	<path fill="#474B4F" d="M85.68,95.225c-1.796,1.004-3.718,1.807-5.735,2.381l1.428,5.33c2.489-0.702,4.856-1.691,7.065-2.936
		L85.68,95.225z"/>
	<path fill="#474B4F" d="M98.681,65.16c0.498,1.976,0.771,4.039,0.804,6.159h5.518c-0.033-2.615-0.371-5.156-0.99-7.588
		L98.681,65.16z"/>
	<path fill="#474B4F" d="M79.154,97.823c-1.977,0.497-4.038,0.771-6.159,0.804v5.518c2.614-0.032,5.156-0.371,7.588-0.99
		L79.154,97.823z"/>
	<path fill="#474B4F" d="M49.087,84.822c-1.004-1.797-1.806-3.719-2.381-5.736l-5.328,1.428c0.701,2.489,1.69,4.856,2.934,7.064
		L49.087,84.822z"/>
	<path fill="#474B4F" d="M58.782,94.815c-1.785-1.071-3.434-2.345-4.92-3.785l-3.9,3.899c1.827,1.78,3.859,3.349,6.062,4.663
		L58.782,94.815z"/>
	<path fill="#474B4F" d="M53.284,90.449c-1.442-1.484-2.716-3.133-3.788-4.919l-4.776,2.758c1.314,2.203,2.883,4.236,4.664,6.062
		L53.284,90.449z"/>
	<path fill="#474B4F" d="M72.177,98.627c-2.121-0.032-4.184-0.307-6.159-0.804l-1.43,5.331c2.432,0.621,4.974,0.958,7.589,0.99
		V98.627z"/>
	<path fill="#474B4F" d="M65.228,97.605c-2.019-0.574-3.941-1.377-5.736-2.381L56.733,100c2.209,1.244,4.577,2.233,7.066,2.936
		L65.228,97.605z"/>
	<path fill="#474B4F" d="M58.292,56.855c1.099-1.057,2.312-1.997,3.623-2.792l-2.723-4.716c-1.724,1.036-3.316,2.266-4.751,3.657
		L58.292,56.855z"/>
	<path fill="#474B4F" d="M54.921,61.056c0.794-1.311,1.735-2.523,2.792-3.623l-3.851-3.851c-1.392,1.436-2.623,3.027-3.658,4.75
		L54.921,61.056z"/>
	<path fill="#474B4F" d="M67.64,51.688c1.458-0.36,2.976-0.562,4.537-0.592v-5.447c-2.047,0.032-4.039,0.296-5.947,0.776
		L67.64,51.688z"/>
	<path fill="#474B4F" d="M62.623,53.655c1.327-0.734,2.743-1.323,4.226-1.753l-1.409-5.262c-1.948,0.556-3.804,1.33-5.539,2.299
		L62.623,53.655z"/>
	<path fill="#474B4F" d="M52.759,65.991c0.43-1.484,1.02-2.899,1.753-4.226l-4.716-2.723c-0.97,1.735-1.745,3.59-2.3,5.539
		L52.759,65.991z"/>
	<path fill="#474B4F" d="M51.953,71.319c0.03-1.561,0.232-3.079,0.593-4.537l-5.266-1.411c-0.479,1.909-0.744,3.901-0.776,5.948
		H51.953z"/>
	<path fill="#474B4F" d="M87.457,57.434c1.058,1.1,1.998,2.312,2.792,3.623l4.717-2.723c-1.035-1.723-2.267-3.314-3.658-4.75
		L87.457,57.434z"/>
	<path fill="#474B4F" d="M83.257,54.063c1.311,0.795,2.522,1.735,3.622,2.792l3.85-3.851c-1.436-1.392-3.026-2.623-4.75-3.658
		L83.257,54.063z"/>
	<path fill="#474B4F" d="M95.374,59.044l-4.716,2.723c0.733,1.326,1.322,2.742,1.753,4.226l5.262-1.41
		C97.117,62.634,96.343,60.778,95.374,59.044z"/>
	<path fill="#474B4F" d="M72.995,51.095c1.56,0.031,3.078,0.233,4.535,0.593l1.41-5.264c-1.907-0.479-3.898-0.744-5.945-0.776
		V51.095z"/>
	<path fill="#474B4F" d="M78.321,51.902c1.483,0.43,2.899,1.019,4.226,1.753l2.723-4.716c-1.734-0.969-3.59-1.743-5.538-2.299
		L78.321,51.902z"/>
	<path fill="#474B4F" d="M52.545,76.673c-0.36-1.458-0.562-2.975-0.592-4.536h-5.449c0.032,2.046,0.297,4.039,0.776,5.948
		L52.545,76.673z"/>
	<path fill="#474B4F" d="M86.879,86.6c-1.099,1.057-2.312,1.997-3.622,2.793l2.723,4.715c1.723-1.034,3.314-2.266,4.75-3.658
		L86.879,86.6z"/>
	<path fill="#474B4F" d="M92.411,77.463c-0.431,1.483-1.02,2.9-1.753,4.226l4.716,2.723c0.969-1.733,1.743-3.589,2.299-5.538
		L92.411,77.463z"/>
	<path fill="#474B4F" d="M90.249,82.398c-0.794,1.311-1.734,2.522-2.791,3.623l3.851,3.85c1.392-1.435,2.622-3.026,3.657-4.75
		L90.249,82.398z"/>
	<path fill="#474B4F" d="M54.512,81.69c-0.734-1.327-1.323-2.744-1.753-4.226l-5.262,1.41c0.555,1.947,1.33,3.803,2.3,5.538
		L54.512,81.69z"/>
	<path fill="#474B4F" d="M92.625,66.782c0.359,1.458,0.562,2.976,0.593,4.537h5.448c-0.032-2.047-0.297-4.04-0.776-5.947
		L92.625,66.782z"/>
	<path fill="#474B4F" d="M93.218,72.137c-0.03,1.559-0.233,3.078-0.593,4.536l5.265,1.41c0.479-1.907,0.744-3.899,0.776-5.946
		H93.218z"/>
	<path fill="#474B4F" d="M82.548,89.801c-1.326,0.733-2.742,1.323-4.225,1.754l1.409,5.261c1.947-0.556,3.804-1.33,5.538-2.3
		L82.548,89.801z"/>
	<path fill="#474B4F" d="M57.712,86.021c-1.057-1.101-1.997-2.312-2.792-3.623l-4.716,2.723c1.035,1.724,2.267,3.315,3.658,4.751
		L57.712,86.021z"/>
	<path fill="#474B4F" d="M77.531,91.769c-1.458,0.359-2.976,0.562-4.536,0.592v5.448c2.047-0.032,4.038-0.298,5.946-0.777
		L77.531,91.769z"/>
	<path fill="#474B4F" d="M61.914,89.393c-1.311-0.794-2.523-1.736-3.622-2.793l-3.851,3.852c1.436,1.391,3.027,2.622,4.75,3.656
		L61.914,89.393z"/>
	<path fill="#474B4F" d="M66.849,91.555c-1.483-0.431-2.899-1.021-4.226-1.754L59.9,94.517c1.735,0.969,3.59,1.743,5.538,2.299
		L66.849,91.555z"/>
	<path fill="#474B4F" d="M72.177,92.36c-1.561-0.03-3.08-0.232-4.538-0.592l-1.41,5.263c1.908,0.479,3.9,0.745,5.948,0.777V92.36z"
		/>
	<path fill="#474B4F" d="M60.036,64.009c0.534-0.865,1.151-1.671,1.847-2.406l-3.591-3.59c-1.006,1.049-1.903,2.204-2.662,3.453
		L60.036,64.009z"/>
	<path fill="#474B4F" d="M62.461,61.024c0.735-0.695,1.541-1.312,2.406-1.847l-2.543-4.406c-1.25,0.759-2.405,1.655-3.454,2.662
		L62.461,61.024z"/>
	<path fill="#474B4F" d="M58.451,67.516c0.293-0.981,0.679-1.923,1.159-2.807l-4.389-2.535c-0.699,1.265-1.26,2.614-1.671,4.029
		L58.451,67.516z"/>
	<path fill="#474B4F" d="M65.566,58.753c0.885-0.48,1.827-0.866,2.808-1.159l-1.312-4.902c-1.414,0.411-2.764,0.972-4.029,1.671
		L65.566,58.753z"/>
	<path fill="#474B4F" d="M57.852,71.319c0.029-1.034,0.164-2.039,0.395-3.01l-4.91-1.316c-0.342,1.391-0.535,2.838-0.565,4.326
		H57.852z"/>
	<path fill="#474B4F" d="M76.796,57.594c0.981,0.293,1.924,0.678,2.808,1.159l2.535-4.389c-1.266-0.699-2.615-1.261-4.029-1.671
		L76.796,57.594z"/>
	<path fill="#474B4F" d="M83.288,61.604c0.696,0.735,1.312,1.541,1.847,2.407l4.406-2.544c-0.76-1.25-1.655-2.405-2.662-3.454
		L83.288,61.604z"/>
	<path fill="#474B4F" d="M80.304,59.178c0.865,0.534,1.671,1.151,2.406,1.847l3.591-3.59c-1.049-1.007-2.205-1.903-3.453-2.662
		L80.304,59.178z"/>
	<path fill="#474B4F" d="M89.949,62.176l-4.39,2.535c0.48,0.884,0.866,1.826,1.159,2.807l4.901-1.313
		C91.209,64.791,90.648,63.441,89.949,62.176z"/>
	<path fill="#474B4F" d="M69.167,57.39c0.971-0.231,1.976-0.367,3.009-0.395v-5.081c-1.487,0.031-2.935,0.223-4.325,0.565
		L69.167,57.39z"/>
	<path fill="#474B4F" d="M58.247,75.146c-0.231-0.971-0.366-1.976-0.395-3.009h-5.081c0.03,1.488,0.223,2.934,0.565,4.325
		L58.247,75.146z"/>
	<path fill="#474B4F" d="M72.995,56.995c1.032,0.029,2.037,0.164,3.008,0.395l1.315-4.911c-1.39-0.342-2.837-0.535-4.323-0.565
		V56.995z"/>
	<path fill="#474B4F" d="M59.61,78.747c-0.48-0.886-0.866-1.827-1.159-2.808l-4.901,1.312c0.411,1.413,0.973,2.765,1.671,4.029
		L59.61,78.747z"/>
	<path fill="#474B4F" d="M86.719,75.938c-0.293,0.982-0.679,1.924-1.158,2.808l4.389,2.536c0.699-1.267,1.26-2.616,1.671-4.029
		L86.719,75.938z"/>
	<path fill="#474B4F" d="M85.135,79.445c-0.534,0.865-1.15,1.673-1.847,2.406l3.591,3.591c1.008-1.049,1.903-2.205,2.662-3.453
		L85.135,79.445z"/>
	<path fill="#474B4F" d="M86.923,68.31c0.231,0.97,0.366,1.975,0.396,3.009h5.08c-0.03-1.488-0.223-2.935-0.564-4.325L86.923,68.31z
		"/>
	<path fill="#474B4F" d="M61.881,81.852c-0.695-0.733-1.312-1.539-1.846-2.406l-4.406,2.544c0.759,1.25,1.655,2.404,2.662,3.453
		L61.881,81.852z"/>
	<path fill="#474B4F" d="M82.71,82.431c-0.734,0.695-1.541,1.312-2.406,1.848l2.544,4.404c1.249-0.758,2.404-1.654,3.453-2.661
		L82.71,82.431z"/>
	<path fill="#474B4F" d="M87.318,72.137c-0.029,1.034-0.164,2.038-0.396,3.007l4.911,1.316c0.342-1.39,0.534-2.836,0.564-4.324
		H87.318z"/>
	<path fill="#474B4F" d="M68.374,85.861c-0.982-0.293-1.923-0.678-2.808-1.159l-2.535,4.39c1.266,0.699,2.615,1.26,4.029,1.671
		L68.374,85.861z"/>
	<path fill="#474B4F" d="M64.866,84.278c-0.865-0.534-1.67-1.151-2.406-1.847l-3.59,3.59c1.048,1.007,2.205,1.903,3.453,2.663
		L64.866,84.278z"/>
	<path fill="#474B4F" d="M76.004,86.065c-0.971,0.232-1.976,0.366-3.009,0.396v5.08c1.486-0.03,2.935-0.222,4.324-0.563
		L76.004,86.065z"/>
	<path fill="#474B4F" d="M72.177,86.461c-1.034-0.027-2.04-0.163-3.01-0.396l-1.316,4.912c1.391,0.342,2.838,0.533,4.326,0.563
		V86.461z"/>
	<path fill="#474B4F" d="M79.605,84.702c-0.886,0.481-1.827,0.866-2.808,1.159l1.312,4.901c1.414-0.411,2.764-0.972,4.028-1.671
		L79.605,84.702z"/>
</g>
<g>
	<g enable-background="new    ">
		<path fill="#6E7174" d="M61.346,17.852H59.41V9.957h-2.479V8.265h6.893v1.692h-2.479V17.852z"/>
		<path fill="#6E7174" d="M65.229,17.852V8.265h1.936v9.587H65.229z"/>
		<path fill="#6E7174" d="M73.325,17.852l-2.197-7.521h-0.057c0.079,1.53,0.119,2.551,0.119,3.062v4.459h-1.729V8.265h2.635
			l2.16,7.331h0.037l2.291-7.331h2.635v9.587h-1.805v-4.538c0-0.214,0.003-0.461,0.01-0.741c0.006-0.28,0.034-1.023,0.084-2.229
			h-0.057l-2.353,7.508H73.325z"/>
		<path fill="#6E7174" d="M86.772,17.852h-5.257V8.265h5.257V9.93h-3.321v2.105h3.09v1.666h-3.09v2.472h3.321V17.852z"/>
	</g>
</g>
<g>
	<g enable-background="new    ">
		<path fill="#6E7174" d="M69.893,135.327h-1.315v-5.552c0-0.662,0.015-1.188,0.044-1.576c-0.085,0.095-0.19,0.197-0.316,0.312
			c-0.125,0.113-0.544,0.475-1.257,1.083l-0.66-0.877l2.407-1.987h1.098V135.327z"/>
		<path fill="#6E7174" d="M78.123,135.327h-5.549v-1.046l2.111-2.229c0.623-0.671,1.037-1.146,1.24-1.427
			c0.203-0.28,0.352-0.544,0.444-0.791c0.094-0.246,0.141-0.512,0.141-0.794c0-0.388-0.111-0.693-0.333-0.917
			c-0.223-0.225-0.529-0.336-0.921-0.336c-0.313,0-0.617,0.062-0.91,0.184c-0.293,0.12-0.632,0.341-1.017,0.658l-0.711-0.912
			c0.456-0.404,0.897-0.689,1.328-0.858c0.429-0.169,0.886-0.253,1.371-0.253c0.762,0,1.372,0.208,1.831,0.627
			c0.458,0.417,0.688,0.979,0.688,1.685c0,0.388-0.066,0.756-0.198,1.105c-0.134,0.349-0.337,0.709-0.61,1.079
			c-0.274,0.37-0.731,0.872-1.369,1.502l-1.423,1.447v0.059h3.886V135.327z"/>
	</g>
</g>
<g>
	<g enable-background="new    ">
		<path fill="#6E7174" d="M132.311,71.025c0,1.495-0.229,2.604-0.686,3.329c-0.458,0.727-1.156,1.088-2.098,1.088
			c-0.91,0-1.601-0.373-2.071-1.123c-0.47-0.748-0.706-1.846-0.706-3.293c0-1.518,0.23-2.636,0.688-3.355s1.154-1.079,2.09-1.079
			c0.916,0,1.608,0.377,2.078,1.129C132.075,68.472,132.311,69.575,132.311,71.025z M128.084,71.025c0,1.172,0.115,2.01,0.344,2.51
			c0.229,0.504,0.596,0.754,1.1,0.754s0.873-0.256,1.106-0.766s0.351-1.341,0.351-2.499c0-1.153-0.117-1.986-0.351-2.502
			s-0.603-0.773-1.106-0.773s-0.87,0.252-1.1,0.758C128.199,69.013,128.084,69.853,128.084,71.025z"/>
		<path fill="#6E7174" d="M133.329,71.661c0-3.365,1.305-5.047,3.914-5.047c0.41,0,0.757,0.033,1.042,0.1v1.153
			c-0.285-0.087-0.613-0.129-0.985-0.129c-0.878,0-1.536,0.246-1.978,0.74c-0.44,0.494-0.68,1.286-0.717,2.376h0.068
			c0.174-0.317,0.422-0.563,0.738-0.737c0.317-0.175,0.691-0.263,1.12-0.263c0.743,0,1.321,0.239,1.735,0.718
			c0.415,0.479,0.622,1.128,0.622,1.948c0,0.902-0.24,1.613-0.72,2.137c-0.48,0.523-1.134,0.785-1.963,0.785
			c-0.586,0-1.096-0.148-1.527-0.443c-0.434-0.297-0.767-0.727-1-1.295C133.446,73.137,133.329,72.456,133.329,71.661z
			 M136.186,74.301c0.451,0,0.799-0.152,1.044-0.459c0.243-0.307,0.366-0.742,0.366-1.311c0-0.495-0.114-0.882-0.344-1.166
			c-0.23-0.282-0.574-0.423-1.033-0.423c-0.284,0-0.546,0.063-0.783,0.19c-0.239,0.128-0.428,0.303-0.566,0.524
			c-0.139,0.221-0.207,0.447-0.207,0.679c0,0.552,0.143,1.019,0.429,1.396C135.375,74.111,135.741,74.301,136.186,74.301z"/>
	</g>
</g>
<g>
	<g enable-background="new    ">
		<path fill="#6E7174" d="M9.521,75.324H8.206v-5.552c0-0.663,0.015-1.188,0.045-1.577c-0.086,0.095-0.191,0.198-0.316,0.312
			c-0.125,0.114-0.544,0.475-1.257,1.082l-0.66-0.876l2.407-1.987h1.097V75.324z"/>
		<path fill="#6E7174" d="M14.04,66.613c0.776,0,1.391,0.188,1.842,0.562c0.451,0.375,0.678,0.876,0.678,1.503
			c0,0.882-0.504,1.584-1.512,2.105c0.642,0.338,1.098,0.692,1.369,1.064c0.271,0.373,0.405,0.788,0.405,1.247
			c0,0.711-0.248,1.279-0.744,1.705c-0.496,0.428-1.169,0.643-2.016,0.643c-0.889,0-1.577-0.199-2.066-0.602
			c-0.489-0.398-0.733-0.965-0.733-1.699c0-0.477,0.128-0.908,0.383-1.291c0.257-0.382,0.676-0.722,1.258-1.021
			c-0.5-0.313-0.856-0.645-1.069-0.993c-0.213-0.35-0.319-0.741-0.319-1.177c0-0.624,0.233-1.12,0.699-1.491
			C12.682,66.798,13.289,66.613,14.04,66.613z M12.522,73.094c0,0.408,0.136,0.725,0.409,0.949c0.271,0.227,0.642,0.34,1.108,0.34
			c0.481,0,0.855-0.117,1.122-0.352c0.268-0.232,0.4-0.549,0.4-0.949c0-0.316-0.123-0.607-0.369-0.87s-0.62-0.506-1.12-0.729
			l-0.162-0.076c-0.493,0.227-0.848,0.478-1.064,0.75C12.631,72.429,12.522,72.742,12.522,73.094z M14.028,67.677
			c-0.373,0-0.674,0.098-0.901,0.291c-0.228,0.194-0.342,0.458-0.342,0.791c0,0.204,0.041,0.387,0.123,0.548
			c0.082,0.16,0.202,0.307,0.359,0.438c0.156,0.132,0.422,0.289,0.795,0.474c0.447-0.208,0.764-0.426,0.948-0.656
			c0.186-0.229,0.277-0.496,0.277-0.803c0-0.333-0.114-0.597-0.344-0.791C14.715,67.775,14.409,67.677,14.028,67.677z"/>
	</g>
</g>
<g>
	<g>
		<path fill="#6E7174" d="M62.798,58.601c0,1.871-0.507,3.305-1.521,4.3s-2.479,1.493-4.394,1.493h-3.066V53.024h3.399
			c1.767,0,3.138,0.491,4.116,1.47C62.31,55.474,62.798,56.843,62.798,58.601z M60.415,58.664c0-2.442-1.026-3.665-3.08-3.665
			h-1.222v7.404h0.985C59.309,62.403,60.415,61.157,60.415,58.664z"/>
		<path fill="#6E7174" d="M71.668,64.394l-0.784-2.705h-3.946l-0.785,2.705h-2.473l3.82-11.416h2.806l3.834,11.416H71.668z
			 M70.335,59.667c-0.725-2.453-1.134-3.839-1.226-4.161c-0.091-0.321-0.156-0.575-0.195-0.762
			c-0.164,0.664-0.629,2.304-1.399,4.923H70.335z"/>
		<path fill="#6E7174" d="M78.354,57.706l2.256-4.682h2.474l-3.591,6.945v4.424h-2.279v-4.347l-3.591-7.022h2.488L78.354,57.706z"/>
		<path fill="#6E7174" d="M91.353,61.237c0,1.026-0.352,1.834-1.055,2.427c-0.704,0.59-1.683,0.885-2.937,0.885
			c-1.154,0-2.175-0.228-3.064-0.683v-2.241c0.73,0.341,1.348,0.583,1.854,0.724c0.506,0.139,0.968,0.21,1.389,0.21
			c0.501,0,0.89-0.102,1.158-0.304c0.268-0.202,0.403-0.502,0.403-0.902c0-0.223-0.06-0.42-0.178-0.594
			c-0.118-0.173-0.291-0.34-0.521-0.502c-0.23-0.16-0.697-0.417-1.403-0.77c-0.662-0.327-1.158-0.639-1.487-0.94
			c-0.33-0.302-0.595-0.651-0.793-1.05c-0.196-0.399-0.295-0.866-0.295-1.399c0-1.005,0.324-1.796,0.972-2.371
			c0.648-0.576,1.546-0.864,2.691-0.864c0.564,0,1.099,0.07,1.61,0.21s1.044,0.336,1.603,0.591l-0.74,1.875
			c-0.579-0.249-1.054-0.423-1.431-0.521c-0.38-0.098-0.75-0.148-1.116-0.148c-0.434,0-0.767,0.106-0.999,0.319
			c-0.231,0.213-0.349,0.49-0.349,0.833c0,0.212,0.048,0.398,0.142,0.556s0.243,0.311,0.448,0.458
			c0.205,0.148,0.688,0.414,1.456,0.798c1.01,0.508,1.703,1.017,2.078,1.527C91.164,59.869,91.353,60.495,91.353,61.237z"/>
	</g>
	<g>
		<path fill="#6E7174" d="M60.72,71.805c0,1.451-0.341,2.564-1.025,3.342c-0.685,0.779-1.665,1.168-2.944,1.168
			c-1.275,0-2.257-0.389-2.941-1.168c-0.684-0.777-1.024-1.896-1.024-3.353c0-1.458,0.343-2.569,1.028-3.338
			c0.686-0.77,1.669-1.153,2.95-1.153c1.282,0,2.262,0.388,2.94,1.162C60.382,69.239,60.72,70.353,60.72,71.805z M54.636,71.805
			c0,0.979,0.178,1.715,0.531,2.209c0.353,0.496,0.882,0.744,1.583,0.744c1.412,0,2.117-0.984,2.117-2.953
			c0-1.973-0.7-2.958-2.105-2.958c-0.703,0-1.232,0.249-1.589,0.748C54.817,70.09,54.636,70.827,54.636,71.805z"/>
		<path fill="#6E7174" d="M64.186,76.194h-1.739V67.44h4.778v1.521h-3.039v2.258h2.828v1.516h-2.828V76.194z"/>
		<path fill="#6E7174" d="M75.104,76.194h-1.766v-7.209h-2.264V67.44h6.293v1.544h-2.264V76.194z"/>
		<path fill="#6E7174" d="M85.48,76.194h-1.764v-3.778h-3.3v3.778h-1.769V67.44h1.769v3.43h3.3v-3.43h1.764V76.194z"/>
		<path fill="#6E7174" d="M92.386,76.194h-4.803V67.44h4.803v1.521h-3.035v1.922h2.822v1.521h-2.822v2.257h3.035V76.194z"/>
	</g>
	<g>
		<path fill="#6E7174" d="M63.635,90.596h-2.613l-1.466-5.974c-0.055-0.212-0.147-0.652-0.277-1.317
			c-0.131-0.665-0.207-1.114-0.226-1.342c-0.03,0.279-0.104,0.729-0.222,1.35c-0.119,0.62-0.21,1.061-0.274,1.326l-1.458,5.957
			h-2.605l-2.762-11.37h2.258l1.385,6.206c0.242,1.146,0.416,2.138,0.525,2.978c0.03-0.296,0.098-0.752,0.203-1.372
			c0.106-0.619,0.206-1.1,0.301-1.443l1.576-6.368h2.169l1.576,6.368c0.07,0.287,0.156,0.722,0.26,1.309
			c0.104,0.584,0.182,1.088,0.237,1.507c0.049-0.404,0.128-0.908,0.236-1.513c0.11-0.604,0.208-1.092,0.297-1.465l1.377-6.206h2.258
			L63.635,90.596z"/>
		<path fill="#6E7174" d="M73.984,90.596H67.75v-11.37h6.234v1.976h-3.938v2.495h3.664v1.977h-3.664v2.932h3.938V90.596z"/>
		<path fill="#6E7174" d="M82.477,90.596h-6.234v-11.37h6.234v1.976h-3.939v2.495h3.665v1.977h-3.665v2.932h3.939V90.596z"/>
		<path fill="#6E7174" d="M93.439,90.596h-2.604l-2.837-4.791l-0.97,0.731v4.06h-2.297v-11.37h2.297v5.202l0.903-1.337l2.932-3.865
			h2.546l-3.774,5.032L93.439,90.596z"/>
	</g>
</g>
<path fill="#515459" d="M117.722,36.239c-6.866-9.167-16.154-16.116-26.859-20.095l0.697-1.875
	c11.065,4.114,20.666,11.296,27.764,20.771L117.722,36.239z"/>
<g>
	<path fill="#515459" d="M117.18,33.889l-4.267,0.116l-0.002,0.15c0,0,8.227,6.698,9.733,8.191
		c-0.74-1.988-3.469-12.239-3.469-12.239l-0.118-0.071L117.18,33.889z"/>
</g>
</svg>
