<?xml version="1.0" encoding="utf-8"?>
<!-- Generator: Adobe Illustrator 16.0.4, SVG Export Plug-In . SVG Version: 6.00 Build 0)  -->
<!DOCTYPE svg PUBLIC "-//W3C//DTD SVG 1.1//EN" "http://www.w3.org/Graphics/SVG/1.1/DTD/svg11.dtd">
<svg version="1.1" id="Layer_1" xmlns="http://www.w3.org/2000/svg" xmlns:xlink="http://www.w3.org/1999/xlink" x="0px" y="0px"
	 width="72px" height="72px" viewBox="0 0 72 72" enable-background="new 0 0 72 72" xml:space="preserve">
<g>
	<polygon fill="#5592BB" points="21.747,41.728 16.643,38.02 4.723,46.679 20.137,46.679 	"/>
	<polygon fill="#5592BB" points="45.588,24.407 51.215,24.407 56.109,9.345 43.638,18.406 	"/>
	<polygon fill="#5592BB" points="27.375,24.407 29.324,18.407 16.854,9.345 21.747,24.407 	"/>
	<polygon fill="#5592BB" points="51.215,41.728 52.824,46.679 68.239,46.679 56.319,38.02 	"/>
	<polygon fill="#5592BB" points="36.48,52.433 31.928,55.741 36.48,69.754 41.034,55.741 	"/>
</g>
<path fill="#FFFFFF" d="M68.239,26.144H43.979L36.48,3.07l-7.497,23.074H4.723l19.628,14.26l-7.497,23.073l19.627-14.26
	l19.629,14.26l-7.498-23.073L68.239,26.144z M49.808,54.942L36.48,45.236l-13.326,9.706l5.09-15.705L14.917,29.53h16.474
	l5.09-15.706l5.091,15.706h16.473l-13.326,9.708L49.808,54.942z"/>
<polygon fill="#84B53C" points="36.48,20.804 39.99,31.603 51.345,31.603 42.159,38.277 45.667,49.076 36.48,42.401 27.295,49.076 
	30.804,38.277 21.617,31.603 32.972,31.603 "/>
</svg>
