<?xml version="1.0" encoding="utf-8"?>
<!-- Generator: Adobe Illustrator 16.0.4, SVG Export Plug-In . SVG Version: 6.00 Build 0)  -->
<!DOCTYPE svg PUBLIC "-//W3C//DTD SVG 1.1//EN" "http://www.w3.org/Graphics/SVG/1.1/DTD/svg11.dtd">
<svg version="1.1" id="Layer_1" xmlns="http://www.w3.org/2000/svg" xmlns:xlink="http://www.w3.org/1999/xlink" x="0px" y="0px"
	 width="72px" height="72px" viewBox="0 0 72 72" enable-background="new 0 0 72 72" xml:space="preserve">
<path d="M36.066,6.374c-11.197,0-20.273,9.077-20.273,20.273c0,4.329,1.368,8.333,3.68,11.626l16.591,28.756l16.594-28.753
	c2.313-3.294,3.683-7.299,3.683-11.629C56.34,15.45,47.262,6.374,36.066,6.374z M36.066,43.009c-9.036,0-16.361-7.326-16.361-16.362
	c0-9.036,7.325-16.361,16.361-16.361c9.036,0,16.362,7.325,16.362,16.361C52.428,35.683,45.102,43.009,36.066,43.009z"/>
<path d="M36.073,25.594h-0.002c-0.65,0.001-1.303-0.154-1.896-0.464l-4.949,12.845h2.343l0.398-1.034l4.063-1.639l4.11,1.628
	l0.402,1.045h2.344l-4.947-12.844C37.356,25.438,36.715,25.594,36.073,25.594z M36.056,26.329l0.712,1.846h-1.423L36.056,26.329z
	 M34.877,29.391h2.358l0.313,0.811l-1.454,0.837l-1.501-0.913L34.877,29.391z M34.15,31.278l0.746,0.454l-1.185,0.685L34.15,31.278z
	 M39.546,35.387l-3.293-1.303l-0.451,0.001l-3.236,1.305l0.45-1.168l3.064-1.769l3.049,1.854L39.546,35.387z M38.415,32.449
	l-1.136-0.689l0.71-0.411L38.415,32.449z M30.584,24.771c0.233,0,0.467-0.09,0.645-0.267c0.356-0.356,0.356-0.934,0-1.289h0
	c-0.461-0.461-0.688-1.058-0.688-1.664c0-0.605,0.228-1.201,0.688-1.664c0.356-0.355,0.356-0.933,0-1.288
	c-0.356-0.357-0.933-0.357-1.289-0.001c-0.814,0.813-1.225,1.888-1.223,2.953c-0.001,1.065,0.409,2.14,1.223,2.953
	C30.118,24.682,30.351,24.771,30.584,24.771z M40.904,18.6c-0.356,0.355-0.356,0.933,0,1.288c0.462,0.462,0.688,1.059,0.688,1.664
	c0,0.604-0.226,1.202-0.688,1.663c-0.356,0.357-0.356,0.933,0,1.289c0.178,0.177,0.411,0.267,0.644,0.267
	c0.233,0,0.469-0.09,0.645-0.267c0.812-0.812,1.224-1.886,1.224-2.952c0-1.065-0.411-2.14-1.224-2.953
	C41.836,18.243,41.261,18.243,40.904,18.6z M28.311,25.035c-0.963-0.965-1.442-2.22-1.442-3.483s0.479-2.519,1.442-3.482
	c0.356-0.355,0.356-0.933,0-1.289c-0.355-0.355-0.933-0.355-1.289,0c-1.316,1.314-1.977,3.047-1.976,4.771
	c0,1.724,0.66,3.456,1.976,4.772c0.178,0.178,0.411,0.266,0.645,0.266c0.234,0,0.467-0.088,0.645-0.266
	C28.667,25.967,28.667,25.391,28.311,25.035L28.311,25.035z M45.111,16.781c-0.356-0.356-0.934-0.356-1.29,0
	c-0.356,0.355-0.356,0.933,0,1.289c0.964,0.964,1.441,2.219,1.443,3.483c-0.002,1.263-0.479,2.518-1.443,3.483
	c-0.356,0.355-0.356,0.933,0,1.289c0.178,0.178,0.413,0.266,0.646,0.266c0.233,0,0.467-0.088,0.645-0.266
	c1.316-1.316,1.976-3.047,1.976-4.771S46.428,18.096,45.111,16.781z M36.056,24.26c1.498,0,2.708-1.211,2.708-2.708
	c0-1.496-1.21-2.709-2.708-2.709c-1.495,0-2.708,1.213-2.708,2.709C33.347,23.048,34.561,24.26,36.056,24.26z"/>
</svg>
