<?xml version="1.0" encoding="utf-8"?>
<!-- Generator: Adobe Illustrator 16.0.4, SVG Export Plug-In . SVG Version: 6.00 Build 0)  -->
<!DOCTYPE svg PUBLIC "-//W3C//DTD SVG 1.1//EN" "http://www.w3.org/Graphics/SVG/1.1/DTD/svg11.dtd">
<svg version="1.1" id="Layer_1" xmlns="http://www.w3.org/2000/svg" xmlns:xlink="http://www.w3.org/1999/xlink" x="0px" y="0px"
	 width="72px" height="72px" viewBox="0 0 72 72" enable-background="new 0 0 72 72" xml:space="preserve">
<path d="M36.066,6.374c-11.197,0-20.273,9.077-20.273,20.273c0,4.329,1.368,8.333,3.68,11.626l16.591,28.756l16.594-28.753
	c2.313-3.294,3.683-7.299,3.683-11.629C56.34,15.45,47.262,6.374,36.066,6.374z M36.066,43.009c-9.036,0-16.361-7.326-16.361-16.362
	c0-9.036,7.325-16.361,16.361-16.361c9.036,0,16.362,7.325,16.362,16.361C52.428,35.683,45.102,43.009,36.066,43.009z"/>
<path d="M30.399,31.035l1.801,1.799c0.969-1.029,2.34-1.674,3.865-1.674c1.527,0,2.898,0.645,3.867,1.674l1.799-1.799
	c-1.432-1.49-3.439-2.424-5.666-2.424C33.841,28.611,31.833,29.545,30.399,31.035z M36.065,33.93c-0.758,0-1.434,0.342-1.9,0.869
	l1.902,1.902l1.9-1.902C37.501,34.271,36.825,33.93,36.065,33.93z M49.317,23.227c-7.318-7.318-19.184-7.318-26.502,0
	c-0.039,0.037-0.072,0.076-0.109,0.113l1.846,1.848c2.928-2.984,7.004-4.84,11.516-4.84c4.51,0,8.586,1.855,11.514,4.84l1.846-1.848
	C49.39,23.303,49.354,23.264,49.317,23.227z M36.067,23.119c-3.568,0-6.924,1.389-9.447,3.912c-0.037,0.037-0.072,0.076-0.109,0.115
	l1.926,1.926c1.932-1.992,4.637-3.23,7.629-3.23c2.994,0,5.697,1.238,7.631,3.23l1.926-1.926c-0.037-0.039-0.072-0.078-0.109-0.115
	C42.989,24.508,39.634,23.119,36.067,23.119z"/>
</svg>
