<?xml version="1.0" encoding="utf-8"?>
<!-- Generator: Adobe Illustrator 16.0.4, SVG Export Plug-In . SVG Version: 6.00 Build 0)  -->
<!DOCTYPE svg PUBLIC "-//W3C//DTD SVG 1.1//EN" "http://www.w3.org/Graphics/SVG/1.1/DTD/svg11.dtd">
<svg version="1.1" id="Layer_1" xmlns="http://www.w3.org/2000/svg" xmlns:xlink="http://www.w3.org/1999/xlink" x="0px" y="0px"
	 width="72px" height="72px" viewBox="0 0 72 72" enable-background="new 0 0 72 72" xml:space="preserve">
<path d="M36.066,6.374c-11.197,0-20.273,9.077-20.273,20.273c0,4.329,1.368,8.333,3.68,11.626l16.591,28.756l16.594-28.753
	c2.313-3.294,3.683-7.299,3.683-11.629C56.34,15.45,47.262,6.374,36.066,6.374z M36.066,43.009c-9.036,0-16.361-7.326-16.361-16.362
	c0-9.036,7.325-16.361,16.361-16.361c9.036,0,16.362,7.325,16.362,16.361C52.428,35.683,45.102,43.009,36.066,43.009z"/>
</svg>
