<?xml version="1.0" encoding="utf-8"?>
<!-- Generator: Adobe Illustrator 16.0.4, SVG Export Plug-In . SVG Version: 6.00 Build 0)  -->
<!DOCTYPE svg PUBLIC "-//W3C//DTD SVG 1.1//EN" "http://www.w3.org/Graphics/SVG/1.1/DTD/svg11.dtd">
<svg version="1.1" id="Layer_1" xmlns="http://www.w3.org/2000/svg" xmlns:xlink="http://www.w3.org/1999/xlink" x="0px" y="0px"
	 width="72px" height="72px" viewBox="0 0 72 72" enable-background="new 0 0 72 72" xml:space="preserve">
<path fill="#5592BB" d="M18.525,9.057h-6.798c-1.476,0-2.671,1.194-2.671,2.669v48.548c0,1.475,1.195,2.668,2.671,2.668h48.546
	c1.475,0,2.67-1.193,2.67-2.668V11.726c0-1.475-1.195-2.669-2.67-2.669H20.803 M33.576,24.212v-6.879h4.848v6.879h4.553
	l-6.976,8.452l-6.976-8.452H33.576z M25.78,42.975L17.331,36l8.45-6.975v4.551h6.882v4.85H25.78V42.975z M38.426,47.787v6.88h-4.85
	v-6.88h-4.549l6.974-8.449l6.976,8.449H38.426z M46.217,42.975v-4.549h-6.881v-4.85h6.881v-4.551L54.668,36L46.217,42.975z"/>
</svg>
