<?xml version="1.0" encoding="utf-8"?>
<!-- Generator: Adobe Illustrator 16.0.4, SVG Export Plug-In . SVG Version: 6.00 Build 0)  -->
<!DOCTYPE svg PUBLIC "-//W3C//DTD SVG 1.1//EN" "http://www.w3.org/Graphics/SVG/1.1/DTD/svg11.dtd">
<svg version="1.1" id="Layer_1" xmlns="http://www.w3.org/2000/svg" xmlns:xlink="http://www.w3.org/1999/xlink" x="0px" y="0px"
	 width="72px" height="72px" viewBox="0 0 72 72" enable-background="new 0 0 72 72" xml:space="preserve">
<path fill="#84B53C" d="M64.257,48.438H7.746l-4.195,8.176h64.898L64.257,48.438z M28.925,54.65l1.743-3.311h10.838l1.569,3.311
	H28.925z M63.288,46.545c0-0.05-0.013-0.1-0.016-0.151c0.003-0.048,0.016-0.1,0.016-0.149V12.426c0-0.858-0.698-1.551-1.557-1.551
	H10.27c-0.859,0-1.556,0.693-1.556,1.551v33.818c0,0.05,0.01,0.102,0.016,0.149c-0.006,0.052-0.016,0.102-0.016,0.151L8.702,46.57
	h54.596L63.288,46.545z M59.411,43.924H12.592V14.751h46.819V43.924z M69.404,58.475H2.596l-0.162,0.317
	c0,0.858,0.696,2.33,1.554,2.33h64.025c0.857,0,1.554-1.472,1.554-2.33L69.404,58.475z"/>
</svg>
